<?xml version="1.0" standalone="no"?>
<!DOCTYPE svg PUBLIC "-//W3C//DTD SVG 20010904//EN"
 "http://www.w3.org/TR/2001/REC-SVG-20010904/DTD/svg10.dtd">
<svg version="1.0" xmlns="http://www.w3.org/2000/svg"
 width="960.000000pt" height="1280.000000pt" viewBox="0 0 960.000000 1280.000000"
 preserveAspectRatio="xMidYMid meet">

<g transform="translate(0.000000,1280.000000) scale(0.100000,-0.100000)"
fill="#000000" stroke="none">
<path d="M0 6400 l0 -6400 4800 0 4800 0 0 6400 0 6400 -1945 0 c-1687 0
-1945 -2 -1945 -14 0 -21 18 -29 59 -28 46 2 113 -16 106 -28 -4 -6 -31 -10
-61 -10 -47 0 -54 -2 -54 -20 0 -23 2 -23 -40 -9 -23 9 -34 9 -39 1 -4 -7 -32
-13 -63 -15 -70 -4 -101 -24 -117 -76 -6 -23 -18 -41 -25 -41 -16 0 -41 -44
-32 -58 10 -17 -4 -40 -30 -46 -13 -4 -24 -10 -24 -16 0 -14 42 -24 49 -11 5
7 18 7 44 -1 32 -10 37 -15 37 -42 0 -35 -28 -66 -60 -66 -11 0 -20 7 -20 15
0 12 -11 14 -52 12 -28 -2 -54 -9 -56 -15 -6 -20 -20 -13 -24 11 -2 14 -11 23
-25 25 -13 2 -23 10 -23 18 0 8 -10 14 -24 14 -19 0 -23 -4 -19 -19 6 -23 -13
-37 -32 -21 -11 9 -16 6 -26 -11 -9 -17 -9 -24 0 -27 26 -9 9 -82 -20 -82 -12
0 -19 -7 -19 -19 0 -11 -4 -23 -10 -26 -18 -11 -10 -34 13 -37 18 -3 13 -8
-28 -29 -27 -13 -54 -30 -58 -36 -4 -7 -13 -13 -18 -13 -6 0 -17 -6 -24 -14
-15 -15 -100 -11 -121 5 -13 10 -89 -25 -126 -59 -16 -14 -28 -21 -28 -14 0
18 -27 3 -33 -19 -3 -11 -14 -19 -26 -19 -12 0 -21 -3 -21 -7 0 -5 -11 -13
-25 -20 -23 -10 -25 -9 -25 17 0 16 -7 30 -15 34 -9 3 -15 0 -15 -9 0 -12 -8
-14 -40 -9 -31 5 -40 3 -40 -8 0 -15 -39 -38 -65 -38 -8 0 -15 -8 -15 -17 -1
-17 -1 -17 -14 0 -20 26 -28 21 -24 -15 2 -25 8 -33 21 -32 13 2 16 -3 12 -17
-5 -16 -1 -19 22 -19 44 0 58 -13 42 -39 -8 -11 -22 -21 -32 -21 -25 0 -47
-24 -47 -50 0 -13 -8 -24 -20 -27 -21 -6 -27 -28 -9 -38 7 -5 4 -14 -7 -26
-12 -13 -31 -19 -63 -19 -43 -1 -45 -2 -26 -16 11 -8 29 -13 41 -11 11 2 25
-1 30 -7 7 -8 -2 -12 -30 -14 -48 -3 -91 -9 -91 -12 0 -1 -17 -3 -38 -4 -22
-2 -42 -8 -46 -15 -10 -15 -41 -3 -41 15 0 8 -7 14 -15 14 -12 0 -15 -13 -15
-55 0 -42 3 -55 15 -55 8 0 15 6 16 13 0 6 5 2 11 -11 6 -12 9 -25 6 -28 -9
-8 -98 -13 -140 -7 -45 7 -47 17 -12 68 31 47 28 69 -11 72 -111 10 -153 16
-171 25 -12 6 -41 7 -65 4 -24 -3 -57 -8 -74 -9 -48 -6 -75 -17 -75 -33 0 -8
-9 -14 -19 -14 -11 0 -23 -4 -26 -10 -3 -5 -18 -10 -32 -10 -16 0 -27 -7 -30
-20 -3 -11 -12 -20 -20 -20 -8 0 -19 -14 -25 -30 -6 -19 -17 -30 -27 -29 -31
3 -40 -1 -46 -21 -11 -34 -25 -22 -25 20 0 22 -4 40 -10 40 -5 0 -10 -9 -10
-20 0 -17 -7 -20 -40 -20 -28 0 -40 -4 -40 -14 0 -9 -7 -12 -19 -9 -10 3 -22
0 -25 -6 -4 -6 -25 -11 -46 -11 -33 0 -43 6 -65 35 -15 19 -24 39 -20 45 3 5
-2 13 -11 17 -10 4 -19 2 -22 -5 -2 -7 -10 -12 -18 -12 -8 0 -14 -10 -14 -25
0 -14 -4 -25 -10 -25 -5 0 -7 7 -4 15 5 12 -2 15 -30 15 -20 0 -36 5 -36 10 0
6 -6 10 -14 10 -16 0 -28 72 -13 81 11 8 5 40 -8 40 -5 0 -12 -15 -15 -33 -5
-31 -7 -33 -50 -35 -78 -3 -79 -4 -73 -19 4 -10 -4 -14 -31 -14 -25 0 -36 4
-36 15 0 19 -5 19 -41 -2 -28 -16 -30 -16 -60 6 -31 23 -33 23 -46 6 -7 -11
-13 -25 -13 -32 0 -8 -13 -13 -36 -13 -24 0 -50 -10 -80 -32 -48 -34 -50 -39
-32 -68 18 -28 3 -35 -21 -11 -12 12 -26 21 -32 21 -5 0 -7 5 -3 12 5 7 3 8
-6 3 -7 -4 -33 -7 -58 -6 -25 0 -52 -4 -60 -11 -8 -7 -23 -13 -33 -13 -10 0
-19 -4 -19 -10 0 -5 9 -10 20 -10 20 0 24 -7 17 -28 -3 -9 -8 -9 -20 2 -12 9
-17 10 -17 2 0 -6 13 -14 30 -17 16 -4 30 -12 30 -18 0 -6 5 -3 11 7 17 29 29
19 29 -23 0 -33 -3 -40 -20 -40 -11 0 -20 7 -20 15 0 8 -17 19 -42 26 -59 15
-69 26 -63 63 3 17 2 36 -2 41 -14 18 -82 45 -99 38 -12 -4 -15 -2 -12 8 3 8
11 13 17 11 6 -1 11 0 11 2 0 12 -59 64 -92 81 -30 15 -38 26 -43 56 -4 24
-14 41 -30 49 -30 16 -38 36 -25 61 6 10 7 19 3 19 -4 0 -2 4 6 9 11 7 7 13
-18 26 -24 12 -31 22 -29 38 2 17 9 21 28 19 l25 -3 -28 24 c-15 14 -41 30
-57 37 -17 7 -30 20 -30 29 0 19 -79 73 -119 81 -19 4 -27 13 -31 35 -3 17
-10 30 -15 29 -23 -2 -75 -29 -77 -41 -4 -19 -74 48 -81 79 -7 26 -5 27 40 30
36 3 43 6 28 12 -11 4 -29 12 -40 18 -14 8 -20 8 -23 -1 -4 -12 -23 -16 -21
-3 3 18 -2 48 -11 62 -7 12 -12 12 -29 -4 -21 -19 -21 -19 -21 0 0 18 -98 94
-120 94 -6 0 -10 5 -10 10 0 12 -27 13 -32 1 -4 -11 -21 -14 -64 -12 -23 1
-33 7 -37 21 -4 15 -14 20 -36 20 -25 0 -31 4 -31 21 0 11 -5 30 -11 41 -9 17
-8 24 5 33 25 19 19 25 -24 25 -28 0 -40 4 -40 14 0 8 -7 16 -15 20 -8 3 -15
18 -15 33 0 51 -11 75 -31 70 -15 -4 -19 0 -19 19 0 14 -7 36 -16 49 -9 13
-13 29 -9 35 3 5 0 10 -8 10 -18 0 -27 21 -27 61 0 16 -4 29 -10 29 -5 0 -10
14 -10 30 l0 30 -360 0 -360 0 0 -6400z m6000 6178 c0 -12 -1 -19 -3 -17 -1 2
-9 12 -16 22 -12 14 -11 17 3 17 10 0 16 -8 16 -22z m-460 -37 c0 -30 -17 -34
-22 -6 -4 17 -1 25 8 25 8 0 14 -9 14 -19z m670 -25 c0 -29 -20 -66 -35 -66
-12 0 -15 6 -10 23 4 12 9 30 11 40 6 20 34 23 34 3z m2917 -821 c12 -3 31 -2
41 4 11 6 31 7 48 2 38 -10 38 -7 69 -371 8 -96 20 -213 25 -260 6 -47 15
-159 20 -250 6 -91 12 -172 16 -180 3 -8 5 -118 5 -245 -1 -126 6 -303 14
-393 10 -120 11 -168 3 -181 -14 -24 -2 -91 17 -91 19 0 17 11 65 -365 42
-328 87 -633 95 -646 3 -4 2 -20 -1 -37 -9 -43 -42 -54 -182 -58 -67 -2 -127
-6 -133 -9 -5 -4 -85 -11 -176 -16 -91 -5 -167 -10 -168 -11 -4 -8 16 -2345
23 -2648 5 -195 5 -591 0 -880 -17 -1080 -26 -2795 -14 -2802 6 -4 36 -8 66
-8 68 0 96 -14 60 -29 -31 -12 -66 -51 -64 -71 0 -8 2 -22 2 -31 2 -15 111
-59 147 -59 8 0 15 -4 15 -9 0 -9 -29 -14 -160 -27 -36 -3 -71 -11 -77 -16 -8
-7 -48 -8 -105 -4 -191 14 -312 20 -893 46 -126 5 -309 14 -405 20 -96 6 -256
15 -355 20 -99 6 -236 15 -305 20 -69 5 -213 14 -320 20 -107 6 -249 15 -315
21 -66 5 -210 16 -320 24 -110 8 -281 22 -380 30 -99 8 -216 18 -260 21 -44 3
-93 12 -110 19 -56 25 -84 28 -108 12 -19 -12 -37 -13 -98 -6 -72 8 -355 35
-669 63 -85 7 -217 14 -292 15 -76 1 -204 11 -285 21 -296 40 -435 52 -878 75
-154 9 -287 17 -295 20 -8 2 -98 11 -200 19 -102 9 -262 23 -356 31 -95 8
-308 18 -475 21 -167 4 -309 11 -316 16 -7 6 -19 5 -32 -1 -38 -21 -121 -9
-141 19 -3 4 -32 22 -65 39 -33 18 -69 37 -80 44 -32 19 -115 106 -114 119 0
10 2 10 6 1 6 -17 48 -16 62 1 10 11 7 17 -11 30 -12 9 -32 16 -44 16 -12 0
-27 7 -34 15 -7 8 -21 15 -31 15 -11 0 -19 5 -19 10 0 6 -18 10 -41 10 -33 0
-40 3 -37 17 3 15 14 18 58 18 114 1 228 17 235 33 5 13 -2 14 -42 7 -63 -11
-249 -10 -293 2 -57 15 -101 -6 -47 -23 12 -4 31 -13 42 -21 18 -14 16 -15
-25 -10 -49 6 -110 33 -110 48 0 12 44 29 75 29 13 0 25 4 27 9 2 6 23 5 53
-1 139 -28 414 -4 477 42 19 14 28 16 31 7 10 -29 21 10 25 91 6 141 -29 1235
-50 1557 -18 269 -15 759 4 783 6 7 8 32 6 57 -3 25 -3 47 1 50 4 2 6 79 5
170 -1 92 0 164 3 162 2 -3 14 4 24 14 18 18 19 24 8 57 -14 41 -13 92 1 106
20 20 10 45 -25 62 -19 9 -35 24 -35 33 0 9 -9 113 -19 231 -10 118 -17 230
-14 248 3 19 1 43 -5 55 -14 29 -29 231 -55 747 -20 390 -22 463 -15 476 4 5
3 28 -2 50 -14 67 -20 141 -27 357 l-6 209 -25 11 c-20 9 -26 8 -36 -6 -10
-12 -22 -15 -50 -10 -73 12 -49 40 39 45 64 4 73 13 61 64 -6 23 -10 24 -69
23 -72 -2 -147 -38 -147 -70 0 -14 -7 -19 -25 -19 -15 0 -23 5 -21 13 2 6 10
34 16 60 9 35 17 46 27 43 11 -4 13 -1 8 15 -4 12 -2 24 4 28 6 4 14 29 17 56
4 26 14 56 23 65 9 9 22 25 29 36 7 10 10 13 7 7 -4 -8 -1 -11 9 -7 20 8 21
30 3 41 -8 4 -17 30 -20 57 -9 62 -39 146 -53 146 -12 0 -21 -192 -12 -265 2
-14 -2 -19 -12 -16 -54 14 -63 14 -58 -1 4 -9 -9 -32 -31 -57 l-37 -42 3 108
c8 280 41 580 76 675 15 44 80 97 111 91 21 -4 28 0 35 20 11 27 37 47 156
115 39 22 92 59 118 82 l48 42 -3 272 c-3 303 3 349 48 360 14 4 43 18 64 31
21 13 40 21 43 18 3 -3 16 4 28 16 30 27 289 156 364 181 83 27 145 49 166 60
29 16 249 54 314 54 33 0 113 -5 178 -11 98 -10 137 -10 225 3 59 8 121 18
137 23 17 5 50 12 75 15 25 4 72 13 105 20 33 8 103 22 155 31 52 10 104 19
115 21 11 2 49 8 85 13 67 10 302 46 400 61 30 5 93 15 140 24 100 18 323 44
430 50 119 8 280 8 650 2 354 -6 558 3 865 39 72 9 173 20 225 25 52 6 133 17
180 25 47 8 130 22 185 31 113 17 294 62 311 75 7 6 138 8 310 6 262 -3 310
-2 388 15 50 10 97 16 107 13 9 -3 36 1 60 10 24 8 54 15 66 15 35 0 397 88
563 137 182 53 327 94 368 105 24 7 48 20 53 30 6 11 15 15 22 11 16 -10 65
-5 90 9 24 12 264 19 287 7 15 -7 103 10 116 23 3 4 19 5 34 1 15 -3 36 0 47
6 17 10 23 10 70 -4z m-5507 -265 c0 -5 -4 -10 -10 -10 -5 0 -10 5 -10 10 0 6
5 10 10 10 6 0 10 -4 10 -10z m-150 -20 c0 -5 -5 -10 -11 -10 -5 0 -7 5 -4 10
3 6 8 10 11 10 2 0 4 -4 4 -10z m-1228 -152 c-9 -9 -15 -9 -24 0 -10 10 -10
15 2 22 20 12 38 -6 22 -22z m273 -8 c8 -13 -20 -24 -41 -16 -20 8 -9 26 16
26 10 0 22 -5 25 -10z m-198 -282 c-3 -7 -5 -2 -5 12 0 14 2 19 5 13 2 -7 2
-19 0 -25z m-1764 -2468 c28 -40 27 -51 -4 -27 -15 11 -39 49 -39 61 0 16 18
2 43 -34z m-103 -5479 c0 -5 -12 -19 -26 -30 -36 -29 -55 -14 -20 16 28 24 46
29 46 14z m648 -577 c12 -8 22 -22 22 -31 0 -8 14 -44 31 -80 19 -39 28 -71
24 -81 -6 -13 -11 -9 -25 22 -10 21 -22 41 -27 45 -6 3 -18 22 -28 41 -10 19
-26 41 -36 48 -24 17 -25 52 -1 52 10 0 28 -7 40 -16z m-323 -234 c3 -5 1 -10
-4 -10 -6 0 -11 5 -11 10 0 6 2 10 4 10 3 0 8 -4 11 -10z m505 -55 c0 -8 9
-15 20 -15 11 0 23 -7 26 -15 9 -22 -18 -75 -38 -75 -26 0 -48 11 -42 21 3 5
0 9 -5 9 -12 0 -16 92 -5 103 10 10 44 -12 44 -28z m1922 -31 c15 -8 38 -14
53 -14 43 0 27 -24 -37 -54 l-61 -29 44 -22 c35 -16 78 -23 203 -32 88 -7 163
-10 166 -8 4 3 57 5 117 6 121 2 161 -11 182 -58 14 -30 14 -30 -5 -37 -20 -8
-710 31 -809 45 -38 6 -85 10 -103 10 -63 -2 -306 29 -361 45 -31 9 -62 18
-69 20 -22 6 -7 29 21 32 14 2 41 -3 59 -12 64 -28 73 -28 96 4 14 19 31 30
47 30 14 0 29 8 35 20 6 11 15 20 21 20 6 0 7 -5 3 -11 -5 -8 -1 -8 14 0 11 6
23 19 27 30 6 20 33 31 80 31 41 0 64 -15 47 -32 -17 -17 -16 -94 2 -101 8 -3
17 0 20 8 2 7 17 15 32 17 24 3 30 10 40 51 7 26 10 47 7 47 -2 0 -1 5 2 10 8
14 89 3 127 -16z m-742 -91 c-1 -28 -21 -34 -94 -32 -48 1 -81 -2 -88 -9 -13
-13 -71 -15 -131 -6 l-38 7 23 16 c30 21 328 43 328 24z m6842 -29 c10 -3 16
-10 12 -15 -3 -6 -13 -8 -20 -5 -8 3 -65 6 -125 7 -61 0 -109 3 -106 5 19 19
187 25 239 8z m-599 -39 c-3 -15 -52 -18 -68 -5 -8 7 -13 16 -10 20 6 10 80
-4 78 -15z m687 -25 c0 -14 -23 -75 -31 -80 -10 -7 -59 -105 -59 -118 0 -6
-13 -31 -30 -55 -32 -48 -36 -67 -19 -84 20 -20 -92 -25 -273 -12 -177 13
-178 13 -178 36 0 26 15 60 37 81 13 13 29 13 81 -3 36 -12 16 22 -27 44 -37
19 -56 39 -78 78 -16 29 -5 36 60 37 43 2 51 5 59 25 7 21 13 23 51 19 28 -3
50 0 62 8 10 7 21 11 26 9 4 -3 11 -1 14 5 5 8 12 7 22 -2 8 -6 28 -11 44 -10
25 2 29 -1 29 -23 0 -31 3 -31 70 5 30 17 62 30 71 30 9 0 22 6 29 14 11 14
40 12 40 -4z m-4876 -39 c16 -7 36 -9 43 -6 8 2 28 -2 44 -11 18 -9 42 -13 57
-9 40 8 125 9 151 0 l23 -7 -21 -19 c-25 -23 -83 -25 -102 -3 -9 12 -21 14
-43 8 -37 -9 -386 -8 -504 1 -67 6 -82 10 -78 21 4 10 2 12 -5 8 -7 -4 -10 -1
-7 7 3 8 20 17 39 20 55 11 371 3 403 -10z m4236 -20 c0 -11 6 -26 13 -33 21
-20 37 -54 37 -76 0 -27 -34 -18 -48 13 -17 37 -26 115 -13 115 6 0 11 -9 11
-19z m-2904 -38 c-10 -10 -19 5 -10 18 6 11 8 11 12 0 2 -7 1 -15 -2 -18z"/>
<path d="M9242 11180 c0 -14 2 -19 5 -12 2 6 2 18 0 25 -3 6 -5 1 -5 -13z"/>
<path d="M9038 10483 c7 -3 16 -2 19 1 4 3 -2 6 -13 5 -11 0 -14 -3 -6 -6z"/>
<path d="M8650 10434 c-7 -24 -18 -44 -25 -44 -7 0 -18 -7 -25 -15 -19 -22 7
-20 48 5 18 11 39 20 46 20 18 0 9 39 -14 62 -17 16 -18 14 -30 -28z"/>
<path d="M8631 10454 c0 -11 3 -14 6 -6 3 7 2 16 -1 19 -3 4 -6 -2 -5 -13z"/>
<path d="M8547 10434 c-3 -3 -3 -12 0 -20 4 -10 10 -11 24 -3 10 5 19 14 19
19 0 11 -33 14 -43 4z"/>
<path d="M8254 10409 c-16 -17 -26 -20 -63 -15 -37 5 -48 2 -73 -19 -26 -22
-31 -23 -44 -10 -22 22 -50 18 -68 -7 -24 -33 -20 -40 21 -36 32 2 38 0 43
-22 l6 -25 8 23 c5 15 13 21 22 18 8 -3 14 1 14 9 0 16 39 18 95 6 25 -5 34
-2 54 22 13 15 30 26 37 23 10 -4 14 2 14 18 0 21 -16 36 -39 36 -4 0 -16 -9
-27 -21z"/>
<path d="M8740 10389 c0 -11 5 -17 10 -14 6 3 10 13 10 21 0 8 -4 14 -10 14
-5 0 -10 -9 -10 -21z"/>
<path d="M1824 10366 c-8 -22 14 -56 36 -56 25 0 25 18 1 48 -22 26 -30 27
-37 8z"/>
<path d="M1584 10339 c-7 -12 15 -31 28 -23 4 3 8 12 8 20 0 17 -26 19 -36 3z"/>
<path d="M7898 10323 c7 -3 16 -2 19 1 4 3 -2 6 -13 5 -11 0 -14 -3 -6 -6z"/>
<path d="M1541 10258 c-5 -13 -7 -25 -5 -27 7 -7 34 21 34 35 0 22 -20 16 -29
-8z"/>
<path d="M8234 10245 c-4 -14 -4 -29 0 -32 9 -10 36 18 36 38 0 28 -29 23 -36
-6z"/>
<path d="M8123 10254 c-7 -3 -9 -12 -6 -20 8 -20 18 -17 20 6 1 11 1 20 0 19
-1 0 -7 -3 -14 -5z"/>
<path d="M1486 10224 c-9 -22 3 -32 14 -14 12 19 12 30 1 30 -5 0 -12 -7 -15
-16z"/>
<path d="M8175 10199 c-12 -19 5 -23 22 -6 16 16 16 17 1 17 -9 0 -20 -5 -23
-11z"/>
<path d="M8480 10030 c0 -5 7 -10 16 -10 8 0 12 5 9 10 -3 6 -10 10 -16 10 -5
0 -9 -4 -9 -10z"/>
<path d="M8340 10009 c0 -5 5 -7 10 -4 6 3 10 8 10 11 0 2 -4 4 -10 4 -5 0
-10 -5 -10 -11z"/>
<path d="M8538 9993 c6 -2 10 -9 6 -14 -6 -11 24 -25 33 -15 7 7 -27 36 -42
35 -5 0 -4 -3 3 -6z"/>
<path d="M8420 9970 c0 -5 5 -10 11 -10 5 0 7 5 4 10 -3 6 -8 10 -11 10 -2 0
-4 -4 -4 -10z"/>
<path d="M8146 9955 c-3 -9 0 -15 9 -15 8 0 15 7 15 15 0 8 -4 15 -9 15 -5 0
-11 -7 -15 -15z"/>
<path d="M8285 9961 c-3 -5 -1 -12 5 -16 5 -3 10 1 10 9 0 18 -6 21 -15 7z"/>
<path d="M8385 9940 c-3 -5 -15 -10 -26 -10 -11 0 -23 -10 -28 -24 -5 -13 -16
-26 -24 -29 -16 -6 -37 10 -37 30 0 7 -5 13 -11 13 -19 0 -49 -21 -49 -34 0
-27 -67 -36 -76 -11 -9 22 -39 18 -56 -7 -9 -14 -26 -23 -44 -23 -20 -1 -30
-8 -32 -21 -2 -10 -8 -23 -12 -27 -12 -13 -48 2 -55 22 -3 10 -19 21 -35 25
-21 4 -30 11 -30 26 0 11 -4 20 -10 20 -15 0 -12 -26 5 -40 22 -18 18 -39 -7
-49 -17 -7 -28 -4 -44 10 -18 17 -22 17 -40 4 -18 -14 -18 -14 4 -15 26 0 44
-36 31 -62 -12 -22 -46 -12 -55 15 -7 22 -28 47 -40 47 -3 0 -2 -6 4 -12 16
-20 -18 -55 -69 -72 -24 -9 -50 -16 -56 -16 -18 0 -16 27 2 34 26 9 17 33 -15
40 -21 4 -30 11 -30 26 0 11 -2 20 -4 20 -8 0 -64 -59 -69 -72 -4 -10 -6 -10
-6 0 -1 6 -5 12 -11 12 -5 0 -7 -7 -4 -15 9 -21 30 -19 48 6 10 15 20 19 35
14 42 -13 32 -83 -11 -72 -10 3 -35 1 -55 -5 -26 -7 -38 -7 -43 2 -6 9 -13 9
-28 1 -11 -6 -41 -11 -66 -11 -25 0 -46 -4 -46 -9 0 -15 50 -42 68 -36 10 3
27 -2 38 -10 10 -8 36 -15 57 -15 20 0 37 -5 37 -10 0 -6 15 -8 38 -4 28 4 41
2 51 -10 7 -9 17 -13 22 -10 5 3 9 -11 9 -30 0 -48 29 -48 56 -1 12 20 57 23
79 5 14 -11 68 -16 83 -7 7 5 12 3 12 -7 0 -9 4 -16 10 -16 5 0 7 7 4 15 -4 9
0 15 10 15 9 0 16 -8 16 -20 0 -11 4 -20 9 -20 5 0 16 -6 23 -13 14 -14 110
-47 137 -47 17 0 51 -33 51 -50 0 -16 49 -23 65 -10 29 24 7 70 -33 70 -20 0
-52 29 -52 48 0 7 -4 12 -10 12 -5 0 -17 11 -26 25 -14 22 -14 26 2 54 13 22
27 31 58 35 58 8 144 0 162 -15 14 -11 13 -15 -7 -29 -17 -13 -20 -23 -15 -44
8 -34 41 -34 91 0 34 23 40 24 53 10 14 -13 12 -16 -11 -27 -26 -12 -37 -29
-18 -29 5 0 16 -3 25 -6 10 -4 16 -1 16 8 0 7 8 25 17 38 10 14 19 34 21 45 5
37 19 38 88 5 51 -24 72 -30 88 -23 18 9 23 4 41 -31 16 -31 26 -40 43 -39 12
2 22 -1 22 -6 0 -5 9 -7 19 -4 10 3 30 -2 44 -11 13 -9 32 -14 41 -10 10 4 18
0 22 -10 4 -11 19 -16 51 -16 43 0 45 -1 40 -26 -3 -20 1 -28 19 -36 29 -13
42 -4 25 16 -15 17 -7 36 15 36 8 0 14 -10 14 -22 0 -22 3 -23 109 -25 93 -2
112 0 132 15 23 19 19 42 -7 42 -8 0 -14 10 -14 24 0 14 -7 31 -15 39 -13 13
-13 17 0 27 8 7 12 16 9 21 -7 12 -81 5 -119 -11 -16 -7 -40 -12 -52 -12 -13
1 -27 -7 -33 -18 -7 -14 -21 -20 -43 -20 -26 0 -37 7 -55 36 -12 19 -20 39
-17 43 9 15 65 18 76 4 6 -7 26 -13 43 -13 36 0 56 32 56 89 0 29 6 40 30 56
35 23 38 35 10 35 -12 0 -38 18 -59 40 -34 36 -43 40 -88 40 -37 0 -55 5 -68
20 -18 20 -18 20 -39 -5 -12 -14 -32 -25 -44 -25 -29 0 -28 11 3 34 28 21 34
56 8 56 -9 0 -24 -7 -33 -15 -9 -8 -27 -16 -41 -17 -22 -3 -24 1 -24 34 0 49
-10 56 -30 19 -8 -17 -22 -31 -29 -31 -8 0 -17 -11 -20 -24 -11 -45 -58 -44
-74 3 -7 19 -17 27 -37 29 -33 2 -47 10 -40 23 4 5 -1 9 -9 9 -9 0 -16 5 -16
10 0 6 -8 10 -17 10 -15 0 -15 -2 2 -14 16 -12 17 -16 6 -30 -15 -18 -76 -22
-86 -5 -4 5 1 19 11 30 9 10 12 19 6 19 -6 0 -14 -4 -17 -10z m123 -74 c2 -9
-2 -24 -9 -32 -11 -14 -13 -14 -21 1 -12 20 0 57 15 52 7 -2 13 -11 15 -21z
m-125 -9 c3 -8 1 -20 -4 -28 -7 -12 -11 -11 -25 3 -17 17 -12 38 11 38 7 0 15
-6 18 -13z m-260 -11 c3 -7 1 -18 -5 -24 -15 -15 -38 -3 -38 19 0 22 35 26 43
5z m577 -25 c0 -23 -16 -36 -25 -21 -9 14 1 40 15 40 5 0 10 -9 10 -19z m-370
-29 c0 -14 -23 -32 -42 -32 -18 0 -25 20 -11 33 9 10 53 9 53 -1z m-401 -31
c-3 -6 -10 -7 -18 -2 -7 5 -10 14 -6 21 9 14 29 -2 24 -19z m129 11 c2 -7 -3
-12 -12 -12 -9 0 -16 7 -16 16 0 17 22 14 28 -4z m127 -12 c-3 -5 -11 -10 -16
-10 -6 0 -7 5 -4 10 3 6 11 10 16 10 6 0 7 -4 4 -10z m-79 -37 c-10 -10 -19 5
-10 18 6 11 8 11 12 0 2 -7 1 -15 -2 -18z m-123 -61 c10 -10 14 -22 10 -25
-13 -13 -28 -6 -40 18 -14 31 5 35 30 7z m842 -54 c21 -9 31 -9 46 0 21 13 22
12 13 -12 -3 -9 -10 -14 -14 -11 -4 3 -8 -14 -8 -36 -1 -23 -3 -44 -7 -47 -11
-12 -60 26 -76 59 -27 54 -9 72 46 47z"/>
<path d="M8624 9943 c-16 -3 -20 -10 -17 -23 7 -27 43 -22 43 7 0 13 -1 22 -2
22 -2 -1 -13 -4 -24 -6z"/>
<path d="M7960 9870 c0 -5 7 -10 15 -10 8 0 15 5 15 10 0 6 -7 10 -15 10 -8 0
-15 -4 -15 -10z"/>
<path d="M1567 9843 c-11 -11 -20 -12 -33 -5 -11 5 -59 9 -108 7 -88 -2 -90
-3 -117 -36 -16 -19 -29 -42 -29 -51 0 -9 -4 -19 -9 -22 -5 -3 -11 -20 -14
-38 -3 -18 -9 -45 -12 -60 -6 -24 -4 -28 14 -28 11 0 21 4 21 9 0 5 16 12 36
16 36 6 73 38 74 63 0 19 24 14 38 -8 22 -36 42 -25 42 24 0 25 -5 48 -10 51
-6 4 -8 11 -5 16 9 14 55 11 71 -6 14 -14 29 -17 103 -20 14 0 26 -5 28 -10 3
-11 -93 -55 -119 -55 -24 0 -23 -36 0 -42 28 -8 145 13 163 28 17 15 30 18 28
7 -4 -24 3 -45 21 -60 11 -10 20 -21 20 -25 0 -13 -34 -48 -45 -48 -27 0 -34
-22 -18 -56 14 -28 20 -32 43 -27 15 3 31 0 34 -6 14 -22 25 -10 19 23 -6 41
19 56 44 26 22 -26 31 -25 35 2 2 15 13 24 36 30 44 12 40 42 -6 46 -24 2 -32
8 -32 23 0 10 4 19 10 19 5 0 18 9 28 20 l19 20 26 -24 25 -24 -5 34 c-3 21 1
47 11 68 9 19 16 38 16 44 0 15 -83 53 -90 41 -7 -10 -30 -3 -80 26 -36 21
-60 19 -60 -5 0 -26 -8 -25 -31 4 -17 22 -26 24 -94 24 -50 -1 -78 -6 -88 -15z
m48 -42 c3 -5 1 -12 -4 -15 -5 -3 -11 1 -15 9 -6 16 9 21 19 6z m95 -27 c0 -8
-4 -12 -10 -9 -5 3 -10 10 -10 16 0 5 5 9 10 9 6 0 10 -7 10 -16z"/>
<path d="M7628 9806 c-4 -32 -2 -34 12 -21 9 8 20 12 23 8 16 -16 5 10 -12 28
-19 20 -19 20 -23 -15z"/>
<path d="M9244 9766 c-6 -16 11 -46 27 -46 15 0 10 37 -6 50 -12 10 -16 9 -21
-4z"/>
<path d="M2173 9763 c-20 -7 -15 -33 5 -33 24 0 32 8 25 26 -5 15 -10 16 -30
7z"/>
<path d="M2799 9745 c28 -16 51 -23 66 -19 18 4 27 0 40 -20 22 -33 30 -32 60
0 19 20 31 25 55 22 17 -3 33 -1 35 3 13 20 -33 29 -161 33 l-138 5 43 -24z"/>
<path d="M4867 9763 c-12 -12 -7 -33 8 -33 17 0 19 9 7 28 -5 7 -11 9 -15 5z"/>
<path d="M4980 9746 c0 -9 7 -16 16 -16 17 0 14 22 -4 28 -7 2 -12 -3 -12 -12z"/>
<path d="M3090 9741 c0 -5 7 -11 15 -15 8 -3 15 -1 15 3 0 5 -7 11 -15 15 -8
3 -15 1 -15 -3z"/>
<path d="M3392 9718 c-19 -19 -14 -32 21 -51 42 -23 67 -14 67 24 0 24 -4 29
-24 29 -13 0 -30 2 -38 5 -7 3 -19 0 -26 -7z"/>
<path d="M4123 9690 c-16 -25 10 -49 35 -33 21 13 22 38 2 38 -8 0 -17 3 -20
7 -3 4 -11 -1 -17 -12z"/>
<path d="M4923 9703 c-15 -6 -17 -53 -3 -53 9 0 30 40 30 56 0 5 -11 4 -27 -3z"/>
<path d="M9381 9694 c0 -11 3 -14 6 -6 3 7 2 16 -1 19 -3 4 -6 -2 -5 -13z"/>
<path d="M2990 9690 c0 -5 5 -10 11 -10 5 0 7 5 4 10 -3 6 -8 10 -11 10 -2 0
-4 -4 -4 -10z"/>
<path d="M3690 9690 c-20 -12 -5 -24 16 -12 9 5 12 12 7 15 -5 3 -15 2 -23 -3z"/>
<path d="M3763 9685 c0 -17 42 -21 52 -5 3 6 0 10 -9 10 -8 0 -21 2 -29 5 -8
4 -14 0 -14 -10z"/>
<path d="M3906 9691 c-18 -7 -18 -8 -3 -14 21 -8 49 2 41 14 -6 10 -12 10 -38
0z"/>
<path d="M4480 9670 c0 -25 4 -30 23 -30 19 0 23 5 21 23 -1 12 -3 25 -3 30
-1 4 -10 7 -21 7 -16 0 -20 -7 -20 -30z"/>
<path d="M6582 9679 c2 -7 10 -15 17 -17 8 -3 12 1 9 9 -2 7 -10 15 -17 17 -8
3 -12 -1 -9 -9z"/>
<path d="M3992 9668 c2 -6 23 -17 46 -23 41 -13 42 -12 42 11 0 22 -4 24 -46
24 -30 0 -44 -4 -42 -12z"/>
<path d="M4393 9653 c-15 -5 -18 -33 -4 -33 5 0 11 9 14 20 3 11 4 20 4 19 -1
0 -8 -3 -14 -6z"/>
<path d="M4616 9651 c-4 -7 -5 -15 -2 -18 9 -9 19 4 14 18 -4 11 -6 11 -12 0z"/>
<path d="M4695 9650 c3 -5 8 -10 11 -10 2 0 4 5 4 10 0 6 -5 10 -11 10 -5 0
-7 -4 -4 -10z"/>
<path d="M5338 9653 c7 -3 16 -2 19 1 4 3 -2 6 -13 5 -11 0 -14 -3 -6 -6z"/>
<path d="M7250 9650 c-13 -8 -13 -10 2 -10 9 0 20 5 23 10 8 13 -5 13 -25 0z"/>
<path d="M3595 9640 c-3 -5 -1 -10 4 -10 6 0 11 5 11 10 0 6 -2 10 -4 10 -3 0
-8 -4 -11 -10z"/>
<path d="M4875 9640 c-9 -15 4 -31 23 -28 12 2 18 -5 20 -24 4 -32 16 -36 27
-10 16 36 12 52 -11 52 -13 0 -26 5 -29 10 -3 6 -10 10 -15 10 -5 0 -12 -4
-15 -10z"/>
<path d="M4990 9634 c0 -12 26 -30 48 -31 16 -1 22 4 22 18 0 15 -7 19 -35 19
-19 0 -35 -3 -35 -6z"/>
<path d="M785 9616 c-11 -7 -33 -16 -49 -20 -19 -5 -32 -17 -39 -36 -9 -24
-17 -30 -43 -30 -17 0 -33 -3 -37 -6 -12 -12 6 -33 34 -39 17 -4 35 -15 42
-26 14 -23 40 -25 57 -4 12 14 6 35 -10 35 -5 0 -21 5 -35 10 -23 9 -25 13
-15 25 18 21 58 18 72 -5 16 -25 30 -25 50 -2 20 22 29 60 22 89 -7 26 -21 29
-49 9z"/>
<path d="M872 9589 c2 -6 8 -10 13 -10 5 0 11 4 13 10 2 6 -4 11 -13 11 -9 0
-15 -5 -13 -11z"/>
<path d="M2631 9584 c0 -11 3 -14 6 -6 3 7 2 16 -1 19 -3 4 -6 -2 -5 -13z"/>
<path d="M2455 9548 c-8 -17 -15 -36 -15 -43 0 -14 42 -55 56 -55 5 0 17 -9
27 -20 9 -11 26 -20 36 -20 11 0 23 -5 26 -10 12 -20 82 -49 104 -43 12 3 21
1 21 -5 0 -16 87 -52 124 -52 17 0 74 -11 126 -24 63 -16 122 -24 175 -23 57
0 89 -5 110 -16 17 -9 44 -17 62 -17 17 0 33 -6 36 -12 2 -7 8 -9 13 -5 5 4 2
12 -6 18 -23 14 6 29 60 29 38 0 95 18 65 20 -5 1 1 6 14 11 16 6 21 14 17 26
-4 9 -1 20 5 24 7 4 -4 12 -27 19 -22 7 -43 16 -49 21 -5 5 -23 9 -40 9 -17 0
-52 13 -78 30 -26 17 -52 30 -57 30 -5 0 -21 5 -35 12 -18 8 -25 19 -25 40 0
33 -17 38 -22 6 -2 -13 -11 -24 -23 -27 -11 -2 -24 -9 -28 -17 -11 -19 -57
-18 -57 1 0 8 -4 15 -10 15 -5 0 -10 -7 -10 -16 0 -15 -3 -14 -27 2 -35 23
-96 33 -248 40 -117 5 -185 18 -185 34 0 8 -36 25 -87 39 -30 9 -33 7 -48 -21z"/>
<path d="M3332 9558 c6 -18 28 -21 28 -4 0 9 -7 16 -16 16 -9 0 -14 -5 -12
-12z"/>
<path d="M8507 9563 c-10 -9 -8 -43 2 -43 5 0 14 7 21 15 17 21 -4 48 -23 28z"/>
<path d="M7810 9506 c0 -8 5 -18 10 -21 6 -3 10 1 10 9 0 8 -4 18 -10 21 -5 3
-10 -1 -10 -9z"/>
<path d="M1070 9490 c-27 -27 -25 -37 10 -55 19 -10 28 -20 23 -28 -11 -19
-13 -59 -2 -79 8 -14 14 -16 29 -8 11 6 20 17 20 25 0 8 5 15 10 15 6 0 10 18
10 40 0 40 -13 53 -24 25 -9 -24 -24 -17 -28 13 -2 15 3 32 11 38 8 6 11 16 7
22 -11 18 -44 14 -66 -8z"/>
<path d="M590 9473 c0 -4 5 -15 10 -23 8 -13 10 -13 10 2 0 9 -4 20 -10 23 -5
3 -10 3 -10 -2z"/>
<path d="M8394 9466 c-3 -9 -4 -22 -1 -30 3 -8 -5 -27 -19 -41 -14 -15 -23
-29 -20 -32 7 -8 46 7 46 18 0 5 7 9 16 9 12 0 14 9 12 42 -3 42 -23 62 -34
34z"/>
<path d="M2150 9439 c-19 -10 -43 -18 -52 -19 -23 0 -26 -60 -3 -60 8 0 15 4
15 9 0 5 11 12 24 15 13 3 26 15 29 26 4 14 13 20 32 20 23 0 26 2 15 15 -15
18 -15 18 -60 -6z"/>
<path d="M2020 9425 c0 -8 5 -15 10 -15 6 0 10 7 10 15 0 8 -4 15 -10 15 -5 0
-10 -7 -10 -15z"/>
<path d="M1843 9415 c-3 -9 -3 -18 0 -22 10 -10 37 6 37 22 0 20 -29 20 -37 0z"/>
<path d="M1193 9383 c-6 -13 -7 -23 -3 -23 5 0 10 6 13 13 3 9 9 9 27 -1 12
-7 24 -11 27 -8 11 11 -6 34 -29 38 -18 3 -27 -1 -35 -19z"/>
<path d="M1377 9322 c-16 -17 -16 -20 -2 -26 16 -6 30 14 23 34 -2 7 -11 4
-21 -8z"/>
<path d="M1232 9301 c-12 -33 -7 -41 20 -41 18 0 24 23 12 54 -9 24 -21 19
-32 -13z"/>
<path d="M2006 9323 c-12 -12 -5 -23 14 -23 11 0 20 4 20 9 0 11 -26 22 -34
14z"/>
<path d="M1916 9292 c-8 -13 11 -35 23 -28 16 10 14 36 -3 36 -8 0 -17 -4 -20
-8z"/>
<path d="M5022 9267 c-35 -37 -28 -47 31 -44 49 2 52 4 48 27 -6 45 -45 53
-79 17z"/>
<path d="M2143 9266 c-4 -8 -21 -16 -38 -18 -27 -3 -30 -7 -29 -35 1 -23 -3
-33 -17 -36 -20 -5 -28 -57 -8 -57 5 0 7 -4 4 -10 -3 -5 -1 -19 5 -30 10 -18
8 -20 -23 -20 -26 0 -37 -6 -47 -25 -10 -18 -19 -24 -33 -19 -13 4 -18 2 -15
-7 4 -12 47 -28 86 -31 14 -2 17 -38 2 -38 -5 0 -10 -7 -10 -15 0 -20 -12 -19
-43 5 -32 25 -35 25 -39 -2 -3 -21 -12 -24 -58 -19 -5 1 -15 19 -21 42 -10 31
-15 37 -21 25 -15 -26 -26 -18 -39 25 -12 40 -13 40 -25 17 -8 -13 -13 -31
-14 -40 0 -11 -8 -18 -20 -18 -12 0 -30 -9 -42 -19 -19 -18 -19 -21 -4 -42 9
-13 16 -31 16 -41 0 -10 5 -18 11 -18 5 0 7 -5 3 -12 -5 -8 24 -10 117 -5 68
4 126 12 127 17 5 13 32 13 32 0 0 -7 25 -10 68 -7 58 3 67 6 67 23 0 12 -8
20 -23 22 -13 2 -26 11 -29 20 -4 9 -11 21 -17 25 -6 5 -2 6 9 3 12 -3 38 3
60 14 22 11 45 20 52 20 15 0 17 16 3 25 -22 14 3 49 42 58 26 7 26 6 17 -25
-13 -48 -11 -58 11 -58 11 0 20 7 20 15 0 34 105 47 163 21 48 -21 88 -25 111
-11 12 7 41 16 66 19 54 8 75 23 59 42 -6 8 -16 14 -21 14 -5 0 -19 9 -31 20
-12 12 -33 23 -47 26 -14 3 -32 9 -40 15 -8 5 -26 14 -40 19 -37 16 -39 17
-115 59 -38 22 -80 40 -92 40 -13 1 -32 10 -42 20 -16 16 -20 17 -25 5 -7 -18
-30 -18 -46 1 -16 19 -27 19 -37 1z m-14 -65 c-15 -5 -22 6 -14 19 6 9 10 9
16 -1 5 -8 4 -15 -2 -18z m15 -76 c3 -8 1 -15 -4 -15 -6 0 -10 7 -10 15 0 8 2
15 4 15 2 0 6 -7 10 -15z m-79 -245 c3 -5 -1 -10 -10 -10 -9 0 -13 5 -10 10 3
6 8 10 10 10 2 0 7 -4 10 -10z m15 -30 c-36 -11 -50 -11 -50 0 0 6 17 10 38 9
33 -1 34 -2 12 -9z"/>
<path d="M8320 9255 c12 -13 27 -22 31 -19 14 8 -14 44 -35 44 -18 0 -18 -2 4
-25z"/>
<path d="M2585 9240 c-3 -5 1 -10 9 -10 9 0 16 5 16 10 0 6 -4 10 -9 10 -6 0
-13 -4 -16 -10z"/>
<path d="M1350 9229 c0 -5 -10 -7 -22 -4 -13 3 -28 2 -34 -2 -13 -10 -30 -98
-26 -139 3 -27 6 -30 27 -26 15 2 25 12 27 26 2 13 11 22 26 24 18 3 22 10 22
40 0 20 3 47 6 58 4 14 0 23 -10 27 -9 4 -16 2 -16 -4z"/>
<path d="M1750 9219 c0 -5 5 -7 10 -4 6 3 10 8 10 11 0 2 -4 4 -10 4 -5 0 -10
-5 -10 -11z"/>
<path d="M8339 9194 c0 -5 -2 -19 -5 -31 -6 -32 16 -40 38 -13 20 24 24 45 8
35 -6 -4 -17 -1 -25 5 -8 7 -15 9 -16 4z"/>
<path d="M1911 9158 c0 -10 -7 -18 -13 -18 -21 0 -51 -79 -30 -81 4 0 26 -2
50 -5 37 -4 43 -2 51 18 11 30 6 42 -24 58 -13 7 -26 20 -28 29 -4 13 -5 13
-6 -1z"/>
<path d="M8150 9146 c0 -9 5 -16 10 -16 6 0 10 4 10 9 0 6 -4 13 -10 16 -5 3
-10 -1 -10 -9z"/>
<path d="M1720 9101 c0 -12 6 -21 16 -21 9 0 14 7 12 17 -5 25 -28 28 -28 4z"/>
<path d="M9066 9061 c-4 -5 -2 -12 3 -15 5 -4 12 -2 15 3 4 5 2 12 -3 15 -5 4
-12 2 -15 -3z"/>
<path d="M8297 9033 c-12 -11 -8 -23 7 -23 7 0 19 7 26 15 10 12 9 15 -7 15
-11 0 -23 -3 -26 -7z"/>
<path d="M895 8970 c3 -5 8 -10 11 -10 2 0 4 5 4 10 0 6 -5 10 -11 10 -5 0 -7
-4 -4 -10z"/>
<path d="M1214 8974 c-7 -3 -8 -22 -2 -62 5 -31 12 -72 14 -89 4 -24 10 -33
23 -33 25 0 32 33 20 94 -17 86 -26 102 -55 90z"/>
<path d="M2920 8972 c0 -12 19 -26 26 -19 2 2 -2 10 -11 17 -9 8 -15 8 -15 2z"/>
<path d="M6560 8947 c-46 -6 -91 -16 -98 -24 -11 -11 6 -13 105 -13 66 0 112
4 105 9 -7 4 -12 14 -10 21 4 18 -5 18 -102 7z"/>
<path d="M2457 8943 c-29 -5 -41 -20 -52 -70 -6 -31 -5 -33 23 -33 46 0 92 30
92 61 0 23 -17 51 -29 48 -4 -1 -18 -4 -34 -6z"/>
<path d="M2725 8930 c-3 -5 1 -10 9 -10 9 0 16 5 16 10 0 6 -4 10 -9 10 -6 0
-13 -4 -16 -10z"/>
<path d="M2550 8906 c0 -16 5 -26 15 -26 8 0 15 6 15 14 0 7 -7 19 -15 26 -13
11 -15 8 -15 -14z"/>
<path d="M2970 8926 c0 -2 9 -6 20 -9 11 -3 20 -1 20 4 0 5 -9 9 -20 9 -11 0
-20 -2 -20 -4z"/>
<path d="M626 8885 c-3 -8 -1 -15 4 -15 6 0 10 7 10 15 0 8 -2 15 -4 15 -2 0
-6 -7 -10 -15z"/>
<path d="M4570 8890 c0 -5 12 -10 28 -9 24 0 25 1 7 9 -27 12 -35 12 -35 0z"/>
<path d="M866 8852 c-3 -5 1 -15 9 -22 16 -14 20 -3 6 19 -5 8 -11 9 -15 3z"/>
<path d="M6825 8849 c-288 -13 -1062 -38 -1545 -49 -245 -6 -590 -15 -767 -20
-177 -6 -423 -10 -545 -10 -123 -1 -306 -5 -408 -10 -102 -5 -432 -14 -735
-20 -302 -5 -566 -13 -585 -16 -136 -22 -271 -94 -375 -199 -65 -65 -97 -123
-125 -228 -22 -84 -22 -88 -15 -551 4 -256 11 -466 15 -466 4 0 47 26 96 58
49 32 114 73 144 90 30 18 96 58 145 88 101 62 344 193 396 213 34 14 94 42
344 161 72 34 173 80 225 101 52 22 120 51 150 64 357 157 928 324 1335 390
276 46 576 75 968 96 287 15 1149 6 1481 -15 418 -27 825 -59 907 -72 49 -8
50 0 3 84 -70 124 -216 242 -364 293 -60 21 -85 23 -315 25 -137 1 -331 -2
-430 -7z"/>
<path d="M1544 8839 c-18 -5 -35 -16 -38 -25 -6 -15 1 -16 55 -11 72 8 84 14
68 33 -13 16 -39 17 -85 3z"/>
<path d="M5238 8403 c7 -3 16 -2 19 1 4 3 -2 6 -13 5 -11 0 -14 -3 -6 -6z"/>
<path d="M4865 8360 c-8 -13 5 -13 25 0 13 8 13 10 -2 10 -9 0 -20 -4 -23 -10z"/>
<path d="M4698 8333 c7 -3 16 -2 19 1 4 3 -2 6 -13 5 -11 0 -14 -3 -6 -6z"/>
<path d="M4528 8273 c6 -2 18 -2 25 0 6 3 1 5 -13 5 -14 0 -19 -2 -12 -5z"/>
<path d="M4483 8253 c9 -2 25 -2 35 0 9 3 1 5 -18 5 -19 0 -27 -2 -17 -5z"/>
<path d="M4088 8173 c7 -3 16 -2 19 1 4 3 -2 6 -13 5 -11 0 -14 -3 -6 -6z"/>
<path d="M3970 8130 c0 -5 9 -10 19 -10 11 0 23 5 26 10 4 6 -5 10 -19 10 -14
0 -26 -4 -26 -10z"/>
<path d="M3875 8120 c-3 -5 -2 -10 4 -10 5 0 13 5 16 10 3 6 2 10 -4 10 -5 0
-13 -4 -16 -10z"/>
<path d="M3628 8033 c6 -2 18 -2 25 0 6 3 1 5 -13 5 -14 0 -19 -2 -12 -5z"/>
<path d="M3433 8002 c-43 -16 -56 -32 -28 -32 8 0 15 4 15 9 0 5 19 16 43 24
23 9 35 15 27 15 -8 1 -34 -7 -57 -16z"/>
<path d="M3508 7978 c-18 -22 -17 -35 1 -23 15 8 34 45 24 45 -4 0 -16 -10
-25 -22z"/>
<path d="M3340 7961 c-8 -5 -85 -42 -171 -84 -86 -42 -162 -83 -169 -92 -7 -8
-19 -15 -28 -15 -22 0 -52 -30 -45 -46 3 -9 -1 -14 -12 -14 -24 0 -10 -17 21
-24 18 -5 37 0 62 16 20 12 47 23 59 24 13 0 31 8 41 17 10 10 28 17 40 17 25
0 62 28 62 47 0 7 7 13 15 13 8 0 19 10 26 22 11 21 10 21 -40 15 -28 -3 -51
-5 -51 -3 0 10 140 74 145 66 7 -12 -6 -39 -20 -39 -5 0 -11 -5 -14 -12 -2 -8
3 -10 17 -7 12 3 23 1 26 -6 4 -7 10 -4 18 8 7 10 24 32 36 47 20 24 21 29 7
29 -10 0 -13 -5 -9 -12 5 -8 2 -9 -10 -5 -10 4 -23 7 -29 7 -7 0 6 9 28 19 22
11 33 19 25 20 -8 0 -22 -4 -30 -8z m-270 -155 c0 -3 -4 -8 -10 -11 -5 -3 -10
-1 -10 4 0 6 5 11 10 11 6 0 10 -2 10 -4z m-110 -106 c0 -5 -4 -10 -10 -10 -5
0 -10 5 -10 10 0 6 5 10 10 10 6 0 10 -4 10 -10z"/>
<path d="M3410 7950 c-10 -6 -5 -9 18 -8 18 1 34 4 37 7 6 11 -39 11 -55 1z"/>
<path d="M3418 7923 c7 -3 16 -2 19 1 4 3 -2 6 -13 5 -11 0 -14 -3 -6 -6z"/>
<path d="M2789 7629 c-8 -5 -26 -9 -40 -9 -29 0 -67 -44 -49 -55 6 -4 8 -11 5
-16 -10 -15 52 -10 65 6 15 18 34 20 24 3 -4 -7 4 -3 18 10 40 37 21 89 -23
61z"/>
<path d="M4516 7484 c-167 -17 -351 -49 -473 -80 -54 -14 -115 -30 -135 -35
-58 -14 -233 -85 -344 -139 -129 -64 -206 -120 -249 -186 -91 -136 -59 -268
81 -339 46 -24 70 -29 123 -29 82 0 134 23 222 93 238 193 689 301 1199 287
288 -7 484 -35 676 -97 94 -30 262 -106 294 -133 8 -7 37 -26 65 -42 43 -25
60 -29 130 -29 66 0 89 4 128 25 91 46 137 119 137 218 0 132 -62 191 -320
304 -188 83 -493 152 -810 183 -178 18 -547 17 -724 -1z m784 -62 c0 -10 -41
-35 -47 -28 -9 8 17 36 33 36 8 0 14 -3 14 -8z m-531 -88 c25 -53 45 -48 45
11 0 30 3 35 23 35 29 0 29 0 -3 -62 -20 -39 -25 -62 -22 -102 3 -51 3 -51
-27 -51 -29 0 -30 2 -27 38 4 40 -23 104 -59 143 -22 24 -16 34 21 34 21 0 30
-9 49 -46z m288 -48 c-6 -100 0 -116 40 -116 13 0 23 -4 23 -10 0 -11 -71 -13
-107 -4 -20 5 -22 11 -18 43 3 20 7 68 9 106 2 39 4 71 5 73 1 1 13 2 27 2
l27 0 -6 -94z m-500 60 c-2 -6 -23 -11 -47 -11 -60 0 -61 -19 -1 -56 73 -45
89 -81 51 -119 -15 -15 -33 -20 -69 -20 -53 0 -70 12 -51 36 11 12 14 12 24
-2 15 -20 60 -15 64 8 2 11 -16 29 -55 55 -60 40 -73 65 -50 96 22 31 144 43
134 13z m730 -17 c19 -39 29 -189 13 -199 -24 -15 -49 1 -52 34 -3 27 -7 31
-35 34 -28 3 -32 0 -35 -25 -2 -17 -10 -29 -20 -31 -26 -5 -23 10 21 103 21
46 37 86 34 89 -12 11 11 27 35 24 17 -2 31 -12 39 -29z m-953 -10 c46 -21 72
-120 46 -170 -13 -23 -61 -49 -90 -49 -31 0 -77 50 -89 97 -25 92 49 160 133
122z m1187 -9 c10 -6 19 -15 19 -20 0 -14 -26 -12 -50 2 -28 18 -56 -13 -71
-76 -14 -64 -2 -96 37 -96 16 0 24 -5 22 -12 -7 -21 -40 -22 -75 -3 -93 51
-47 215 60 215 21 0 47 -5 58 -10z m149 -38 c66 -19 83 -39 29 -34 -27 2 -32
-3 -50 -45 -11 -26 -23 -66 -26 -90 -5 -39 -8 -43 -34 -43 -15 0 -30 3 -32 8
-3 4 6 43 19 86 31 103 31 116 -1 116 -14 0 -25 5 -25 10 0 15 48 12 120 -8z
m-1530 -8 c0 -13 -7 -15 -32 -10 -71 13 -77 -34 -8 -55 38 -12 90 -58 90 -81
0 -5 -13 -23 -29 -39 -23 -23 -39 -29 -70 -29 -34 0 -41 3 -41 20 0 11 7 20
15 20 8 0 15 -4 15 -10 0 -14 33 -13 48 2 23 23 12 39 -43 64 -50 23 -85 55
-85 77 0 4 12 19 26 32 33 30 114 36 114 9z m1726 -55 c41 -16 53 -24 45 -32
-9 -9 -17 -8 -31 1 -28 17 -67 15 -74 -4 -11 -29 -6 -42 19 -48 14 -4 23 -11
20 -16 -4 -6 -16 -8 -29 -4 -25 6 -41 -8 -51 -47 -6 -23 -2 -28 30 -43 54 -26
32 -37 -30 -16 -31 11 -59 22 -64 25 -5 3 4 39 20 81 16 41 29 85 29 98 0 43
13 43 116 5z m-1908 9 c-3 -7 -19 -14 -37 -16 -37 -4 -47 -21 -31 -51 8 -16
17 -20 35 -15 15 4 25 2 25 -5 0 -6 -6 -11 -14 -11 -23 0 -28 -18 -16 -56 12
-36 12 -36 59 -29 57 8 47 -5 -27 -34 l-53 -21 -18 43 c-10 23 -23 59 -30 79
-7 20 -19 42 -27 48 -25 22 -15 37 39 58 60 24 101 28 95 10z m-170 -139 c18
-44 32 -87 32 -95 0 -28 -47 -64 -83 -64 -46 0 -81 29 -108 90 -12 28 -26 50
-31 50 -20 0 -5 31 22 45 29 15 30 15 36 -12 9 -39 49 -117 68 -132 8 -7 25
-11 38 -9 18 2 24 10 26 35 4 43 -32 123 -58 130 -11 3 -20 9 -20 14 0 8 29
28 41 29 3 0 20 -36 37 -81z m2291 36 c76 -75 -22 -229 -124 -195 -66 22 -83
85 -45 160 37 72 116 89 169 35z m192 -88 c37 -25 44 -50 17 -55 -10 -2 -18 1
-18 7 0 14 -29 41 -46 41 -18 0 -18 -28 1 -73 43 -102 -24 -164 -112 -104 -49
33 -55 67 -12 67 13 0 19 -7 19 -24 0 -26 28 -40 51 -25 12 7 10 20 -9 75 -21
61 -22 68 -7 90 20 31 70 32 116 1z m-2695 -30 c39 -42 51 -96 30 -138 l-15
-31 41 7 c32 6 39 4 36 -6 -3 -9 -32 -18 -76 -24 -39 -5 -74 -13 -78 -17 -14
-15 -25 -8 -19 11 4 14 0 21 -15 26 -25 8 -66 61 -75 98 -16 61 45 123 110
112 17 -3 44 -20 61 -38z"/>
<path d="M5217 7275 c-23 -47 -22 -55 8 -55 23 0 25 4 25 45 0 54 -10 57 -33
10z"/>
<path d="M4260 7295 c-25 -30 12 -175 45 -175 29 0 40 44 26 105 -17 75 -44
102 -71 70z"/>
<path d="M5986 7087 c-46 -60 -61 -132 -29 -144 37 -14 120 129 93 162 -19 23
-37 18 -64 -18z"/>
<path d="M3457 7003 c-14 -13 -6 -46 20 -94 56 -99 125 -84 77 17 -29 62 -76
99 -97 77z"/>
<path d="M2398 7373 c7 -3 16 -2 19 1 4 3 -2 6 -13 5 -11 0 -14 -3 -6 -6z"/>
<path d="M2384 7345 c-19 -14 -18 -14 4 -15 13 0 22 6 22 15 0 19 -1 19 -26 0z"/>
<path d="M3068 7326 c-10 -7 -15 -16 -12 -19 9 -8 54 15 48 24 -7 12 -16 11
-36 -5z"/>
<path d="M2336 7300 c-11 -3 -15 -9 -10 -12 5 -3 18 -2 28 2 11 3 15 9 10 12
-5 3 -18 2 -28 -2z"/>
<path d="M1935 6980 c-3 -5 1 -10 9 -10 8 0 18 5 21 10 3 6 -1 10 -9 10 -8 0
-18 -4 -21 -10z"/>
<path d="M1836 6914 c-36 -34 -39 -54 -10 -54 8 0 14 7 14 15 0 8 8 15 19 15
19 0 55 43 44 54 -13 13 -31 5 -67 -30z"/>
<path d="M7120 6276 c0 -9 5 -16 10 -16 6 0 8 -10 5 -23 -4 -15 -1 -28 10 -37
23 -19 26 -9 12 40 -12 43 -37 67 -37 36z"/>
<path d="M3858 5444 c-22 -12 -28 -22 -28 -49 0 -28 8 -41 45 -72 39 -32 43
-39 31 -51 -16 -16 -36 -8 -36 14 0 20 -24 17 -45 -6 -20 -22 -89 -28 -100 -9
-13 20 4 57 29 63 13 3 26 13 30 21 4 11 -2 15 -24 15 -23 0 -30 5 -30 19 0
16 8 20 37 23 27 2 39 8 41 21 3 16 -4 18 -70 15 l-73 -3 -1 -45 c0 -25 -2
-74 -5 -109 l-4 -65 70 3 c38 1 72 7 76 12 3 6 20 3 42 -6 65 -27 137 2 137
55 0 19 -13 39 -45 69 -25 23 -45 46 -45 52 0 16 28 10 39 -8 9 -17 11 -16 30
1 29 26 27 34 -16 45 -48 14 -52 13 -85 -5z"/>
<path d="M4062 5449 c-42 -16 -56 -39 -60 -100 -5 -70 11 -102 61 -118 66 -22
118 15 127 90 13 100 -48 161 -128 128z m56 -100 c2 -49 -1 -69 -12 -78 -25
-21 -36 -3 -36 59 0 70 7 92 29 88 12 -3 17 -18 19 -69z"/>
<path d="M4335 5451 c-19 -7 -20 -16 -16 -112 2 -64 8 -107 15 -111 16 -11 80
-10 110 2 59 22 84 116 46 177 -26 43 -101 65 -155 44z m89 -47 c9 -24 7 -117
-3 -133 -18 -28 -31 1 -31 68 0 37 3 71 7 74 11 11 20 8 27 -9z"/>
<path d="M4590 5451 c-33 -9 -70 -66 -70 -107 0 -76 41 -124 105 -124 65 0 88
26 93 104 5 75 -7 102 -53 122 -37 15 -38 15 -75 5z m58 -95 c4 -66 -4 -98
-25 -94 -21 4 -35 60 -27 103 8 40 13 47 32 43 13 -2 18 -16 20 -52z"/>
<path d="M3255 5434 c-33 -33 -44 -70 -42 -141 2 -69 3 -71 27 -71 14 1 44 -9
67 -21 47 -24 83 -27 101 -9 20 20 14 28 -24 28 l-36 0 26 30 c45 54 46 132 4
178 -26 27 -98 31 -123 6z m85 -80 c0 -53 -15 -94 -34 -94 -19 0 -26 22 -26
80 0 31 6 54 16 65 24 24 44 1 44 -51z"/>
<path d="M3438 5445 c-8 -9 2 -147 13 -176 19 -49 88 -64 132 -29 26 21 29 32
41 158 l5 52 -30 0 c-34 0 -48 -22 -28 -46 16 -19 14 -110 -2 -130 -20 -24
-52 -13 -61 21 -8 28 -6 56 8 128 5 26 4 27 -34 27 -21 0 -41 -2 -44 -5z"/>
<path d="M4753 5439 c-8 -8 -8 -20 -1 -41 6 -18 8 -60 4 -104 l-7 -74 74 0
c59 0 77 4 90 18 21 23 22 70 1 93 -12 13 -13 22 -5 38 15 28 14 38 -9 61 -15
15 -33 20 -78 20 -32 0 -63 -5 -69 -11z m97 -44 c0 -8 -4 -15 -10 -15 -5 0
-10 7 -10 15 0 8 5 15 10 15 6 0 10 -7 10 -15z m6 -89 c6 -26 -1 -46 -16 -46
-12 0 -24 46 -15 59 11 18 24 12 31 -13z"/>
<path d="M4956 5434 c-3 -8 -1 -25 5 -37 7 -13 10 -50 6 -99 l-5 -79 71 3 c58
2 72 6 75 20 3 14 -3 16 -32 11 -32 -5 -36 -3 -42 22 -4 15 -4 60 -1 101 l5
74 -38 0 c-25 0 -40 -5 -44 -16z"/>
<path d="M5129 5443 c-1 -5 -2 -57 -3 -116 l-1 -108 79 3 c53 2 81 7 84 16 2
8 -7 12 -26 12 -48 0 -62 9 -62 41 0 25 5 30 30 36 38 7 39 31 3 35 -20 2 -28
9 -28 23 0 17 6 20 36 17 36 -3 58 16 43 39 -6 11 -154 12 -155 2z"/>
<path d="M5451 5436 c-33 -18 -50 -53 -51 -104 0 -77 38 -121 106 -122 41 0
64 13 64 37 0 10 -9 12 -34 8 -28 -6 -36 -3 -50 16 -16 24 -20 67 -10 107 5
18 13 22 45 22 21 0 41 5 45 11 14 24 24 -19 24 -109 l0 -93 38 3 c36 3 37 4
35 41 -3 48 11 47 31 -3 14 -34 20 -40 46 -40 39 0 48 22 21 51 -29 32 -35 57
-17 75 22 21 20 67 -3 88 -24 22 -125 34 -145 17 -11 -9 -20 -10 -35 -2 -27
15 -81 13 -110 -3z m235 -70 c-3 -14 -11 -26 -16 -26 -11 0 -14 53 -3 63 13
13 26 -12 19 -37z"/>
<path d="M5794 5403 c3 -21 6 -73 6 -115 l0 -78 80 0 c73 0 80 2 80 20 0 17
-7 20 -46 20 -45 0 -45 0 -42 32 2 24 9 34 23 36 51 10 54 42 4 42 -23 0 -29
4 -29 21 0 18 4 20 33 15 35 -6 50 0 60 27 6 15 -2 17 -85 17 l-91 0 7 -37z"/>
<path d="M5995 5430 c-3 -5 -2 -18 3 -27 9 -16 -1 -147 -13 -180 -7 -19 54
-17 61 2 4 8 1 21 -5 28 -11 14 -4 87 9 87 4 0 14 -21 21 -46 l14 -46 27 33
c16 18 28 41 28 51 0 10 5 18 10 18 9 0 15 -63 10 -117 -1 -22 1 -23 77 -20
76 2 78 3 78 27 0 16 7 26 18 28 25 5 49 -17 42 -39 -6 -16 -1 -19 34 -19 48
0 55 9 36 46 -8 16 -15 36 -15 44 0 8 -10 43 -22 78 l-23 62 -43 0 c-42 0 -43
-1 -41 -32 1 -18 -8 -66 -20 -106 -28 -93 -42 -82 -61 46 l-13 92 -34 0 c-29
0 -36 -5 -44 -30 -6 -16 -15 -30 -19 -30 -5 0 -11 14 -15 30 -6 28 -10 30 -50
30 -24 0 -47 -4 -50 -10z m359 -92 c6 -26 -9 -47 -24 -32 -10 10 -2 54 10 54
4 0 10 -10 14 -22z"/>
<path d="M1320 5259 c0 -25 33 -22 38 4 2 12 -3 17 -17 17 -15 0 -21 -6 -21
-21z"/>
<path d="M8380 5170 c0 -13 7 -20 20 -20 13 0 20 7 20 20 0 13 -7 20 -20 20
-13 0 -20 -7 -20 -20z"/>
<path d="M3581 4988 c-30 -11 -28 -58 4 -88 14 -13 25 -29 25 -37 0 -18 -10
-16 -26 5 -12 15 -15 15 -24 2 -16 -24 -6 -35 34 -38 69 -6 88 43 36 93 -16
15 -27 32 -23 38 3 5 9 4 13 -3 10 -16 40 -6 40 14 0 16 -49 26 -79 14z"/>
<path d="M3685 4907 l0 -82 54 0 c35 0 56 5 59 13 2 8 -7 12 -27 12 -26 0 -31
4 -31 24 0 16 7 27 20 31 26 8 26 21 -1 28 -30 8 -18 33 14 29 19 -2 27 1 27
12 0 13 -12 16 -57 16 l-58 0 0 -83z"/>
<path d="M3825 4980 c-3 -5 -3 -14 0 -20 3 -5 1 -37 -5 -71 -6 -34 -9 -63 -6
-66 2 -3 14 -2 25 2 16 5 19 12 14 40 -7 42 11 47 25 8 l9 -28 20 33 c23 38
36 29 31 -21 -3 -30 -1 -32 31 -35 32 -3 33 -2 27 25 -3 15 -9 54 -13 86 -5
51 -8 57 -29 57 -14 0 -28 -9 -35 -22 l-12 -23 -10 23 c-11 23 -60 32 -72 12z"/>
<path d="M4015 4905 l0 -86 29 3 29 3 1 82 1 83 -30 0 -30 0 0 -85z"/>
<path d="M4117 4972 c-24 -26 -32 -77 -17 -112 13 -32 39 -44 86 -38 22 2 30
10 37 37 10 40 1 51 -35 44 -24 -5 -27 -9 -21 -31 4 -17 2 -23 -6 -18 -12 8
-15 64 -5 90 4 11 14 13 34 10 16 -4 31 -1 35 6 19 31 -81 42 -108 12z"/>
<path d="M4249 4983 c0 -5 -1 -42 -1 -83 l0 -75 29 0 c23 0 27 4 25 23 -4 30
6 28 18 -3 8 -22 15 -25 60 -25 43 0 50 3 50 20 0 28 28 25 32 -2 2 -18 9 -22
28 -21 42 4 54 4 86 -3 74 -14 99 45 42 103 -17 18 -28 36 -24 40 4 4 11 1 16
-6 10 -17 40 -7 40 13 0 14 -29 26 -62 26 -20 0 -58 -34 -58 -51 0 -7 16 -27
36 -45 19 -19 32 -39 29 -45 -5 -6 -11 -4 -19 7 -10 14 -16 14 -34 5 -25 -13
-22 -19 -47 72 -14 53 -18 57 -45 57 -28 0 -34 -8 -31 -36 0 -6 -7 -35 -17
-64 l-19 -54 -18 27 c-13 21 -15 31 -6 40 18 18 13 65 -8 77 -23 12 -101 14
-102 3z m71 -43 c0 -11 -4 -20 -10 -20 -5 0 -10 9 -10 20 0 11 5 20 10 20 6 0
10 -9 10 -20z m127 -42 c-3 -8 -6 -5 -6 6 -1 11 2 17 5 13 3 -3 4 -12 1 -19z"/>
<path d="M4713 4980 c-33 -13 -55 -64 -47 -106 8 -41 36 -64 81 -64 42 0 63
30 63 91 0 39 -5 51 -26 68 -29 23 -38 24 -71 11z m45 -76 c2 -43 -10 -70 -27
-60 -12 8 -15 88 -4 100 15 15 28 -2 31 -40z"/>
<path d="M4912 4968 c-20 -20 -13 -51 20 -85 31 -32 34 -58 3 -33 -18 15 -45
6 -45 -14 0 -31 96 -39 117 -10 18 24 8 54 -30 86 -30 27 -32 53 -2 28 19 -16
41 1 32 24 -8 19 -77 22 -95 4z"/>
<path d="M5039 4973 c-1 -4 -2 -43 -3 -85 l-1 -77 52 -7 c28 -3 56 -3 62 1 18
10 13 25 -8 25 -54 0 -70 38 -25 58 25 12 25 32 -2 32 -26 0 -15 19 14 22 16
2 27 9 27 18 0 11 -14 16 -57 18 -32 2 -58 -1 -59 -5z"/>
<path d="M5185 4968 c-2 -7 -6 -48 -10 -91 -6 -78 -6 -78 17 -75 20 3 23 8 20
46 -2 25 1 42 7 42 6 0 11 -11 11 -25 0 -16 6 -25 15 -25 9 0 21 11 27 25 17
38 28 30 28 -20 0 -44 1 -45 31 -45 29 0 31 2 25 28 -3 15 -9 53 -12 84 -7 64
-32 83 -62 47 -21 -24 -28 -24 -35 1 -6 23 -55 29 -62 8z"/>
<path d="M5374 4939 c3 -17 6 -56 6 -85 0 -53 1 -54 28 -54 l28 0 0 85 -1 85
-34 0 c-32 0 -33 -1 -27 -31z"/>
<path d="M5467 4889 c3 -46 8 -86 10 -89 3 -3 25 -5 50 -5 57 0 83 28 83 89 0
63 -16 79 -88 84 l-62 4 7 -83z m83 -9 c0 -38 -4 -50 -15 -50 -11 0 -15 12
-15 50 0 38 4 50 15 50 11 0 15 -12 15 -50z"/>
<path d="M5625 4961 c-5 -9 0 -64 11 -118 10 -52 76 -71 114 -33 18 18 20 31
18 87 -3 67 -11 80 -38 63 -13 -8 -13 -13 -2 -31 15 -23 8 -94 -10 -105 -20
-12 -30 15 -29 80 l0 66 -29 0 c-16 0 -31 -4 -35 -9z"/>
<path d="M5794 4929 c3 -17 6 -56 6 -86 0 -53 0 -54 28 -51 22 2 27 7 25 28
-3 24 -2 24 12 6 8 -11 15 -23 15 -28 0 -4 14 -8 30 -8 34 0 36 6 15 37 -11
16 -14 34 -9 62 9 57 -5 71 -73 71 l-55 0 6 -31z m76 -19 c0 -11 -4 -20 -10
-20 -5 0 -10 9 -10 20 0 11 5 20 10 20 6 0 10 -9 10 -20z"/>
<path d="M5956 4938 c-16 -23 -21 -83 -10 -113 10 -24 60 -46 89 -39 35 9 55
41 55 89 0 56 -28 85 -80 85 -29 0 -43 -6 -54 -22z m69 -66 c0 -70 -19 -67
-23 4 -2 43 0 55 10 52 8 -3 13 -23 13 -56z"/>
<path d="M6990 4914 c-14 -37 -12 -64 5 -64 8 0 15 3 16 8 3 30 7 49 14 65 5
12 2 17 -9 17 -9 0 -21 -12 -26 -26z"/>
<path d="M1934 4551 c-2 -2 -4 -44 -4 -93 0 -65 3 -88 13 -88 7 0 17 14 22 32
7 23 18 34 39 40 16 4 33 13 37 20 13 20 11 64 -3 76 -14 10 -96 21 -104 13z
m74 -54 c2 -12 -3 -17 -17 -17 -12 0 -21 6 -21 13 0 31 32 34 38 4z"/>
<path d="M2155 4551 c-6 -11 13 -26 22 -17 4 3 1 6 -6 6 -7 0 -9 5 -6 10 3 6
4 10 1 10 -3 0 -7 -4 -11 -9z"/>
<path d="M2258 4531 c-2 -19 -9 -27 -28 -29 -33 -4 -50 -28 -50 -68 0 -42 23
-64 66 -64 40 0 41 1 47 102 5 68 3 77 -13 81 -14 4 -20 -1 -22 -22z m0 -87
c3 -25 -13 -48 -27 -40 -12 8 -15 49 -4 60 11 11 28 1 31 -20z"/>
<path d="M2701 4544 c-21 -15 -22 -18 -6 -26 11 -7 21 -6 28 2 9 8 7 9 -8 4
-20 -7 -20 -7 -1 14 23 26 19 28 -13 6z"/>
<path d="M2322 4533 c5 -25 28 -28 28 -4 0 12 -6 21 -16 21 -9 0 -14 -7 -12
-17z"/>
<path d="M2450 4525 c0 -20 -5 -25 -23 -25 -33 0 -57 -30 -57 -71 0 -45 15
-59 61 -59 33 0 37 3 43 31 3 17 6 58 6 90 0 46 -3 59 -15 59 -9 0 -15 -9 -15
-25z m-10 -90 c0 -24 -5 -35 -14 -35 -21 0 -29 17 -22 46 10 38 36 30 36 -11z"/>
<path d="M2633 4525 c7 -7 14 -10 17 -6 3 3 9 9 13 12 4 4 -3 7 -17 7 -19 0
-22 -3 -13 -13z"/>
<path d="M2072 4480 c-29 -46 -3 -110 45 -110 21 0 45 21 42 36 -1 5 1 17 6
27 4 10 3 29 -3 43 -15 31 -71 34 -90 4z m58 -20 c0 -5 -7 -10 -15 -10 -8 0
-15 5 -15 10 0 6 7 10 15 10 8 0 15 -4 15 -10z m3 -47 c-7 -2 -19 -2 -25 0 -7
3 -2 5 12 5 14 0 19 -2 13 -5z"/>
<path d="M2320 4434 c0 -48 3 -65 13 -62 7 3 13 28 15 66 2 51 0 62 -13 62
-12 0 -15 -13 -15 -66z"/>
<path d="M2517 4486 c-11 -8 -18 -28 -19 -51 -2 -63 52 -91 100 -53 6 6 12 28
12 49 0 57 -50 87 -93 55z m53 -52 c0 -14 -4 -23 -10 -19 -5 3 -10 1 -10 -4 0
-6 -4 -11 -10 -11 -11 0 -14 43 -3 53 15 16 33 5 33 -19z"/>
<path d="M2642 4488 c-15 -15 -16 -55 -1 -64 8 -5 7 -9 -1 -14 -16 -10 -6 -38
15 -46 45 -18 92 33 60 65 -10 11 -11 18 -2 33 10 15 9 21 -3 28 -21 13 -54
12 -68 -2z m38 -88 c0 -5 -2 -10 -4 -10 -3 0 -8 5 -11 10 -3 6 -1 10 4 10 6 0
11 -4 11 -10z"/>
<path d="M2760 4474 c0 -31 23 -28 28 4 2 15 -2 22 -12 22 -11 0 -16 -9 -16
-26z"/>
<path d="M6711 4434 c0 -11 3 -14 6 -6 3 7 2 16 -1 19 -3 4 -6 -2 -5 -13z"/>
<path d="M4191 4430 c-40 -10 -67 -35 -76 -71 -6 -25 -4 -27 36 -32 37 -5 46
-2 66 19 19 20 26 23 43 14 11 -6 20 -17 20 -24 0 -8 -34 -44 -75 -81 -76 -67
-111 -116 -102 -139 4 -10 43 -14 142 -15 l136 -2 -3 38 -3 38 -57 3 c-32 2
-58 6 -58 10 0 4 21 22 46 41 79 60 95 122 45 172 -16 16 -38 29 -49 29 -11 0
-32 2 -48 4 -16 3 -44 1 -63 -4z"/>
<path d="M4469 4414 c-30 -19 -52 -51 -45 -63 3 -5 22 -11 43 -14 30 -5 42 -2
60 15 19 17 25 19 38 8 22 -18 18 -39 -9 -46 -22 -5 -35 -29 -36 -61 0 -6 15
-13 33 -15 29 -3 32 -6 35 -39 2 -27 -1 -38 -14 -43 -25 -9 -51 2 -57 25 -5
17 -11 19 -49 13 -53 -8 -54 -9 -40 -38 19 -43 58 -60 133 -60 76 0 101 14
125 71 15 36 6 77 -23 98 -15 11 -15 14 0 36 23 33 21 63 -7 96 -21 24 -32 28
-92 30 -52 3 -76 -1 -95 -13z"/>
<path d="M4777 4400 c-67 -53 -63 -232 7 -285 39 -29 119 -34 165 -10 37 18
61 79 61 151 0 66 -18 113 -55 142 -39 31 -141 31 -178 2z m113 -50 c23 -14
27 -161 5 -183 -20 -21 -29 -21 -49 -1 -23 22 -22 150 1 176 18 21 22 21 43 8z"/>
<path d="M2757 4403 c-13 -12 -7 -43 8 -43 9 0 15 9 15 25 0 24 -10 32 -23 18z"/>
<path d="M5282 4393 c-55 -27 -77 -68 -77 -144 0 -115 60 -172 185 -173 47 -1
78 5 113 21 l47 22 0 70 0 69 -76 7 c-84 8 -97 2 -92 -41 2 -25 8 -29 36 -32
18 -2 32 -9 32 -17 0 -29 -76 -34 -110 -7 -32 26 -40 108 -13 141 24 29 74 33
101 8 19 -17 67 -22 96 -11 35 13 7 63 -51 93 -33 17 -152 13 -191 -6z"/>
<path d="M6571 4317 c-6 -6 -11 -16 -11 -22 0 -5 -18 -21 -40 -35 -22 -14 -40
-29 -40 -33 0 -5 -12 -18 -26 -29 -14 -12 -30 -32 -35 -45 -5 -13 -13 -22 -18
-19 -10 7 -75 -43 -67 -51 6 -6 114 44 131 60 7 6 10 21 8 32 -4 14 -2 16 5 7
7 -10 16 -7 43 15 19 15 36 30 39 34 3 3 11 8 19 11 8 2 16 11 17 19 2 7 6 24
9 35 8 25 -16 39 -34 21z"/>
<path d="M1873 4234 c-26 -30 -30 -54 -8 -54 11 0 15 -12 15 -49 0 -51 15 -75
31 -50 12 19 7 172 -6 176 -5 1 -20 -9 -32 -23z"/>
<path d="M1981 4228 c-34 -32 -34 -32 -13 -46 18 -12 22 -24 22 -64 0 -35 4
-48 13 -46 14 5 33 166 20 179 -5 5 -24 -6 -42 -23z"/>
<path d="M2377 4242 c-30 -33 -17 -74 14 -46 12 11 19 12 24 4 9 -14 -14 -60
-29 -60 -12 0 -38 -58 -31 -69 2 -4 23 -7 46 -6 46 0 66 22 30 32 -26 7 -26 9
-1 40 11 14 20 41 20 59 0 24 -5 34 -20 39 -11 3 -20 11 -20 16 0 15 -16 10
-33 -9z"/>
<path d="M1742 4238 c-22 -22 -14 -41 13 -34 24 6 35 -7 15 -19 -15 -10 -12
-35 5 -35 9 0 15 -9 15 -21 0 -16 -5 -20 -17 -16 -10 2 -24 6 -32 8 -20 6 -24
-16 -6 -35 21 -20 49 -21 69 0 11 11 16 34 16 78 0 66 -11 86 -45 86 -12 0
-26 -5 -33 -12z"/>
<path d="M2144 4238 c-4 -6 -10 -28 -14 -49 -7 -37 -6 -38 23 -41 33 -3 42
-15 27 -38 -8 -12 -13 -13 -30 -2 -27 16 -30 15 -30 -8 0 -44 69 -47 89 -4 16
37 14 52 -14 80 -30 30 -31 34 -6 34 18 0 38 17 30 24 -13 11 -69 14 -75 4z"/>
<path d="M2250 4218 c0 -13 -3 -33 -6 -45 -6 -20 -3 -23 25 -23 27 0 31 -4 31
-26 0 -23 -3 -25 -30 -19 -23 5 -30 3 -30 -8 0 -44 72 -46 92 -2 14 31 -5 80
-35 90 -21 7 -20 8 6 12 19 3 27 10 27 24 0 16 -7 19 -40 19 -35 0 -40 -3 -40
-22z"/>
<path d="M2502 4220 c0 -14 2 -19 5 -12 2 6 2 18 0 25 -3 6 -5 1 -5 -13z"/>
<path d="M2536 4163 c-5 -67 -4 -80 11 -90 9 -7 24 -13 34 -13 28 0 37 22 37
95 1 74 -5 85 -49 85 -25 0 -26 -2 -33 -77z m54 32 c0 -8 -4 -15 -10 -15 -5 0
-10 7 -10 15 0 8 5 15 10 15 6 0 10 -7 10 -15z m-2 -77 c-5 -32 -28 -35 -28
-4 0 17 5 26 16 26 10 0 14 -7 12 -22z"/>
<path d="M2656 4209 c-12 -60 -8 -69 24 -69 23 0 30 -5 30 -19 0 -25 -18 -37
-33 -22 -6 6 -17 11 -24 11 -22 0 -14 -29 12 -46 23 -15 27 -15 51 0 21 15 25
23 22 59 -2 32 -8 44 -25 52 -30 13 -29 25 2 25 17 0 25 5 25 18 0 14 -9 19
-39 20 -36 3 -39 1 -45 -29z"/>
<path d="M2832 4232 c-7 -5 -12 -30 -12 -63 0 -30 0 -62 0 -72 -2 -45 52 -63
83 -29 14 15 16 31 9 93 -7 73 -7 74 -37 77 -16 1 -36 -2 -43 -6z m48 -47 c0
-8 -4 -15 -10 -15 -5 0 -10 7 -10 15 0 8 5 15 10 15 6 0 10 -7 10 -15z m0 -75
c0 -11 -7 -20 -15 -20 -8 0 -15 9 -15 20 0 11 7 20 15 20 8 0 15 -9 15 -20z"/>
<path d="M2963 4215 c-28 -27 -29 -51 -3 -58 17 -4 20 -14 20 -56 0 -39 4 -51
15 -51 12 0 15 17 15 95 0 103 -6 112 -47 70z"/>
<path d="M7920 4039 c0 -5 5 -7 10 -4 6 3 10 8 10 11 0 2 -4 4 -10 4 -5 0 -10
-5 -10 -11z"/>
<path d="M7821 4008 c-45 -10 -71 -28 -71 -47 0 -18 19 -13 54 14 18 14 35 22
39 19 8 -8 47 5 47 17 0 11 -10 10 -69 -3z"/>
<path d="M6215 4000 c-3 -6 1 -7 9 -4 18 7 21 14 7 14 -6 0 -13 -4 -16 -10z"/>
<path d="M1740 3930 c-15 -28 -4 -41 27 -34 25 7 25 7 8 -20 -16 -23 -16 -26
-1 -32 9 -3 16 -15 16 -26 0 -16 -5 -18 -35 -12 -38 7 -45 -4 -19 -30 20 -20
58 -20 78 -1 18 19 15 137 -4 160 -18 22 -57 18 -70 -5z"/>
<path d="M1877 3922 c-32 -33 -34 -48 -7 -55 17 -4 20 -14 20 -56 0 -39 4 -51
15 -51 15 0 17 19 19 152 1 41 -14 45 -47 10z"/>
<path d="M1980 3929 c-17 -31 -24 -123 -12 -146 17 -31 49 -35 72 -10 26 27
29 137 4 161 -22 22 -51 20 -64 -5z m45 -88 c-4 -23 -11 -41 -16 -41 -10 0
-12 83 -2 94 15 14 25 -14 18 -53z"/>
<path d="M2192 3938 c-7 -7 -12 -17 -12 -23 0 -6 -11 -26 -25 -45 -34 -46 -34
-80 1 -80 17 0 28 -6 31 -20 7 -26 17 -25 36 3 11 17 13 41 9 100 -5 77 -14
91 -40 65z m-2 -98 c0 -5 -5 -10 -11 -10 -5 0 -7 5 -4 10 3 6 8 10 11 10 2 0
4 -4 4 -10z"/>
<path d="M2271 3903 c-16 -57 -14 -63 19 -63 25 0 30 -4 30 -25 0 -26 -18 -33
-37 -14 -15 15 -34 2 -26 -19 8 -22 23 -32 49 -32 27 0 42 18 50 58 5 25 1 36
-20 57 -32 32 -32 33 -4 37 13 2 24 11 26 21 3 14 -4 17 -37 17 -38 0 -41 -2
-50 -37z"/>
<path d="M2403 3914 c-26 -28 -30 -54 -8 -54 12 0 15 -13 15 -56 0 -47 3 -55
18 -52 14 3 17 17 20 96 3 101 -4 111 -45 66z"/>
<path d="M2566 3883 c-43 -65 -44 -97 -5 -101 17 -2 29 -11 32 -23 8 -28 30
-23 45 11 10 22 11 34 2 50 -7 14 -9 40 -5 71 6 44 5 49 -13 49 -12 0 -32 -20
-56 -57z m34 -47 c0 -3 -4 -8 -10 -11 -5 -3 -10 -1 -10 4 0 6 5 11 10 11 6 0
10 -2 10 -4z"/>
<path d="M2669 3923 c-11 -13 -11 -15 -1 -9 11 7 12 -1 7 -38 l-7 -46 31 0
c26 0 31 -4 31 -25 0 -27 -18 -33 -38 -13 -9 9 -15 9 -24 0 -19 -19 3 -46 40
-50 58 -6 85 78 37 116 -31 24 -31 30 -2 34 14 2 23 11 25 26 3 20 -1 22 -41
22 -30 0 -49 -6 -58 -17z"/>
<path d="M2844 3932 c-38 -3 -42 -6 -48 -34 -3 -17 -6 -41 -6 -54 0 -21 3 -23
30 -17 27 5 30 3 30 -21 0 -28 -10 -32 -40 -16 -24 13 -35 -3 -20 -30 15 -28
64 -27 84 2 23 32 20 65 -9 94 -30 30 -31 34 -5 34 19 0 47 36 33 42 -5 2 -27
2 -49 0z"/>
<path d="M2932 3910 c-26 -34 -28 -60 -7 -60 12 0 15 -13 15 -55 0 -48 3 -55
19 -55 18 0 20 9 23 95 3 89 -1 105 -26 105 -1 0 -12 -13 -24 -30z"/>
<path d="M7835 3844 c-178 -80 -316 -132 -500 -190 -60 -19 -119 -38 -130 -43
-11 -5 -58 -18 -105 -29 -47 -11 -130 -32 -185 -47 -97 -26 -270 -65 -287 -65
-5 0 -6 5 -3 10 3 6 -3 10 -14 10 -26 0 -36 -17 -14 -23 10 -3 2 -5 -19 -4
-20 0 -43 -5 -51 -11 -16 -13 -204 -55 -322 -71 -38 -5 -90 -14 -115 -20 -149
-35 -568 -83 -865 -101 -315 -19 -943 -9 -1360 20 -179 13 -215 15 -265 18
-27 2 -31 5 -20 12 12 8 9 10 -12 10 -16 0 -28 5 -28 10 0 6 -21 10 -47 11
-27 1 -59 5 -73 9 -15 5 0 6 38 3 71 -7 90 13 20 20 -77 9 374 -3 497 -12 160
-13 751 -13 995 -1 183 9 248 13 610 40 136 11 607 65 640 75 8 2 85 16 170
30 85 14 175 32 200 39 25 8 65 19 90 27 25 7 61 20 80 28 19 8 41 15 49 15
18 1 27 26 9 27 -7 1 -17 1 -21 0 -4 -1 -29 -3 -55 -6 -158 -16 -336 -43 -462
-71 -36 -8 -85 -14 -110 -14 -25 0 -63 -5 -85 -11 -60 -15 -199 -29 -390 -39
-159 -8 -213 -12 -325 -25 -171 -19 -423 -25 -458 -11 -16 7 -26 6 -31 -2 -10
-17 -226 -29 -244 -14 -8 7 -31 11 -53 11 -21 -1 -51 2 -66 6 -22 6 -28 4 -28
-9 0 -19 -11 -21 -28 -4 -10 10 -17 10 -33 0 -30 -19 -271 -17 -324 3 -22 8
-50 14 -62 15 -12 0 -24 4 -28 10 -3 5 -11 8 -18 6 -7 -1 -9 -1 -4 1 4 3 7 11
7 19 0 10 -12 14 -40 14 -22 0 -40 -4 -40 -10 0 -5 5 -10 12 -10 6 0 9 -3 6
-6 -3 -3 -22 2 -42 10 -31 13 -38 13 -50 0 -8 -8 -31 -14 -50 -14 -20 0 -36
-4 -36 -10 0 -17 -17 -11 -49 16 -17 14 -31 22 -31 16 0 -5 -124 -8 -317 -7
-307 2 -484 12 -511 29 -7 4 -72 12 -144 17 -73 6 -137 14 -143 18 -12 10
-143 33 -204 36 -42 2 -127 14 -311 44 -36 6 -94 17 -130 26 -79 18 -248 27
-256 14 -3 -6 1 -20 9 -33 12 -18 33 -25 119 -40 56 -10 132 -24 168 -31 269
-57 333 -67 865 -135 88 -11 223 -29 300 -40 77 -11 160 -20 185 -20 25 0 51
-4 58 -9 25 -16 -14 -32 -109 -43 -60 -8 -86 -14 -73 -19 62 -24 -362 6 -791
56 -703 83 -805 92 -805 77 0 -6 -5 -78 -11 -161 -12 -176 -4 -240 45 -346 67
-145 238 -283 401 -324 60 -15 234 -24 465 -23 236 0 1380 -27 1390 -33 4 -2
209 -11 456 -20 247 -9 559 -20 694 -25 135 -6 360 -15 500 -20 140 -6 361
-14 490 -20 129 -5 417 -18 640 -27 223 -9 513 -17 645 -18 l240 0 95 34 c52
18 102 39 111 47 8 8 20 14 26 14 6 0 38 20 71 45 92 69 163 173 191 280 12
46 14 327 4 763 -5 267 -8 302 -22 302 -9 0 -92 -34 -186 -76z m-4408 -470
c-3 -3 -12 -4 -19 -1 -8 3 -5 6 6 6 11 1 17 -2 13 -5z m-697 -188 c9 -25 42
-42 60 -31 6 3 23 0 39 -8 18 -9 34 -11 42 -6 18 12 279 9 302 -3 26 -13 87
12 98 39 8 20 15 23 69 23 57 0 60 -1 60 -25 0 -23 4 -25 48 -26 122 -4 187 3
208 22 27 26 52 24 56 -3 3 -20 9 -23 44 -23 22 0 49 -6 58 -14 13 -11 20 -11
28 -3 13 13 70 16 82 5 4 -5 26 -8 49 -8 41 0 42 -1 42 -35 0 -31 -3 -35 -27
-38 -31 -4 -39 -22 -10 -22 40 0 57 -55 26 -81 -12 -9 -23 -10 -43 -2 -16 6
-37 6 -50 2 -14 -6 -34 -4 -55 5 -21 9 -39 10 -47 5 -8 -5 -39 -7 -69 -4 -30
3 -157 7 -281 9 -166 3 -231 7 -247 17 -17 11 -24 11 -34 1 -17 -17 -73 -15
-92 3 -8 8 -19 15 -24 15 -6 0 -12 -7 -16 -15 -3 -8 -15 -15 -26 -15 -11 0
-30 -11 -41 -24 -12 -13 -32 -27 -44 -30 -29 -7 -74 9 -91 32 -9 13 -33 18
-101 22 l-88 5 0 100 c0 55 3 108 7 118 11 27 57 22 68 -7z m1420 -96 c4 -59
9 -75 21 -78 12 -2 18 7 23 32 7 37 46 76 75 76 9 0 26 -7 39 -15 16 -12 27
-13 41 -5 11 5 38 10 60 10 33 0 40 3 43 23 4 31 55 37 66 8 8 -24 79 -64 88
-50 3 5 22 9 43 9 50 0 73 -26 79 -89 4 -44 1 -53 -22 -76 -22 -22 -33 -26
-59 -21 -18 3 -86 6 -152 7 -80 1 -129 6 -147 15 -15 8 -29 10 -32 5 -8 -12
-204 -13 -227 0 -17 8 -19 22 -19 104 0 117 4 127 44 123 l31 -3 5 -75z m772
36 c9 -22 19 -25 77 -31 36 -3 81 -10 99 -16 25 -8 37 -8 45 0 16 16 59 13 86
-5 17 -12 26 -13 34 -5 14 14 94 15 102 1 4 -7 12 -7 25 0 26 14 73 13 93 -2
9 -7 20 -31 25 -53 6 -30 13 -41 32 -45 21 -5 26 -13 28 -46 2 -32 -2 -44 -23
-64 l-26 -24 -25 27 c-26 28 -56 34 -157 28 -27 -1 -55 3 -63 10 -11 9 -23 9
-53 0 -27 -7 -47 -8 -65 -2 -14 6 -47 8 -74 4 -43 -5 -53 -2 -73 18 -15 15
-24 18 -27 11 -7 -22 -40 -34 -62 -22 -14 8 -20 21 -20 45 0 31 -3 35 -25 35
-21 0 -25 -5 -25 -27 0 -41 -13 -55 -46 -51 l-29 3 -3 95 c-4 141 -5 140 73
140 60 0 66 -2 77 -24z m846 -22 c12 -8 22 -19 22 -24 0 -13 51 -20 157 -23
l93 -2 6 28 c5 25 10 28 37 25 27 -2 33 -8 37 -33 5 -28 7 -29 50 -27 50 3 58
-1 83 -38 26 -37 22 -92 -9 -125 -23 -25 -30 -27 -72 -21 -46 6 -48 5 -59 -25
-10 -27 -16 -30 -45 -27 -22 2 -36 10 -43 25 -11 25 -42 33 -129 33 -35 0 -73
7 -90 15 -20 11 -33 12 -40 5 -11 -11 -75 -14 -101 -4 -23 9 -55 77 -55 116 1
45 30 100 60 115 27 14 63 10 98 -13z m881 -42 c20 -22 34 -27 83 -29 56 -3
58 -2 58 23 0 23 4 25 33 22 l32 -3 0 -115 0 -115 -80 -3 c-45 -2 -89 2 -100
8 -15 8 -29 8 -49 1 -43 -17 -65 -13 -96 18 -26 25 -29 34 -28 97 0 89 4 101
36 119 36 19 81 10 111 -23z m-285 -21 c3 -5 26 -6 51 -3 42 4 45 3 45 -19 0
-37 -49 -186 -66 -204 -10 -10 -29 -15 -48 -13 -24 2 -32 8 -34 27 -2 13 2 35
9 48 10 19 10 32 -4 77 -20 63 -21 83 -4 89 20 9 45 8 51 -2z m-3874 -170 c5
-11 10 -24 10 -30 0 -16 -26 -13 -40 4 -17 20 -26 19 -50 -5 -20 -20 -27 -80
-14 -114 8 -20 48 -21 64 -1 18 22 32 18 28 -7 -4 -30 -47 -53 -81 -44 -34 8
-48 35 -49 95 0 77 32 121 87 121 24 0 38 -6 45 -19z m586 -9 c-8 -9 -19 -13
-22 -9 -10 9 16 38 28 31 6 -4 4 -13 -6 -22z m1130 -23 c4 -7 -1 -16 -10 -21
-17 -10 -22 -38 -6 -38 6 0 10 -7 10 -15 0 -8 -4 -15 -10 -15 -5 0 -10 -22
-10 -49 0 -54 -7 -81 -21 -81 -5 0 -9 28 -9 63 0 37 -5 69 -12 76 -10 11 -10
14 0 18 6 3 12 13 12 23 0 19 25 50 40 50 5 0 12 -5 16 -11z m-1568 -25 c17
-12 22 -25 22 -60 0 -71 -56 -109 -102 -67 -21 19 -25 91 -5 115 23 30 54 34
85 12z m468 -29 c10 -40 -2 -55 -41 -55 -28 0 -35 -4 -35 -20 0 -22 20 -26 38
-8 8 8 15 9 23 1 14 -14 -15 -43 -45 -43 -44 0 -65 59 -42 115 25 59 88 65
102 10z m1264 29 c0 -17 -22 -14 -28 4 -2 7 3 12 12 12 9 0 16 -7 16 -16z
m-1563 -6 c15 -12 18 -105 4 -127 -16 -26 -33 -1 -26 40 8 45 -1 79 -20 79
-20 0 -27 -15 -34 -73 -9 -75 -31 -74 -31 1 0 33 2 67 5 74 7 17 84 22 102 6z
m151 -6 c3 -10 -4 -12 -32 -7 -47 9 -48 -10 -1 -32 19 -9 36 -22 39 -28 6 -16
-15 -55 -35 -68 -25 -16 -69 0 -69 24 0 16 4 19 18 14 28 -12 45 -11 49 2 2 7
-12 19 -31 27 -38 16 -49 49 -24 74 16 16 80 11 86 -6z m268 7 c3 -5 -6 -14
-19 -20 -19 -9 -26 -22 -33 -67 -10 -63 -34 -84 -34 -29 0 19 3 55 6 80 6 43
8 45 40 45 19 0 37 -4 40 -9z m54 -38 c0 -14 4 -32 9 -40 7 -11 13 -3 22 28
11 39 32 61 44 49 3 -3 -7 -37 -22 -77 -33 -91 -51 -91 -75 -3 -18 69 -15 100
8 81 8 -6 14 -23 14 -38z m205 23 c9 -9 15 -28 13 -43 -3 -23 -8 -26 -45 -29
-45 -3 -49 -7 -33 -32 8 -13 13 -13 31 -2 28 18 47 1 24 -22 -40 -40 -95 -3
-95 64 0 48 24 80 60 80 16 0 36 -7 45 -16z m143 -7 c3 -16 1 -17 -18 -7 -23
12 -50 7 -50 -9 0 -5 16 -15 35 -22 39 -15 53 -45 36 -77 -20 -38 -101 -32
-101 8 0 24 13 26 30 5 17 -21 40 -19 40 4 0 12 -11 23 -29 29 -34 12 -47 42
-31 72 15 28 83 25 88 -3z m128 15 c15 -10 34 -47 34 -66 0 -12 -10 -16 -40
-16 -34 0 -40 -3 -40 -20 0 -25 25 -37 44 -21 11 9 16 9 22 0 8 -14 -22 -39
-45 -39 -37 1 -56 29 -56 81 0 41 4 54 24 70 25 20 39 23 57 11z m1337 -58
c-1 -32 -2 -79 -2 -104 l-1 -46 -47 1 c-40 0 -49 4 -60 25 -33 65 -4 134 53
128 26 -3 29 0 32 30 6 59 26 30 25 -34z m-1123 34 c0 -5 -9 -12 -19 -15 -19
-5 -31 -40 -31 -94 0 -16 -4 -29 -10 -29 -6 0 -10 31 -10 73 l0 73 35 1 c19 1
35 -3 35 -9z m112 -5 c10 -9 18 -29 18 -45 0 -26 -3 -28 -40 -28 -34 0 -40 -3
-40 -20 0 -24 27 -37 43 -21 15 15 27 14 27 -4 0 -9 -10 -19 -22 -24 -47 -17
-78 13 -78 76 0 69 50 105 92 66z m227 -2 c2 -1 -8 -12 -23 -26 -21 -20 -26
-33 -26 -75 0 -38 -4 -50 -15 -50 -12 0 -15 15 -15 73 0 41 2 76 4 78 3 3 58
3 75 0z m59 -73 c-2 -46 -7 -73 -15 -76 -10 -3 -13 16 -13 72 0 62 3 76 15 76
13 0 15 -12 13 -72z m162 -18 c0 -99 -14 -130 -60 -130 -16 0 -36 8 -46 18
-17 16 -17 17 0 20 9 2 23 -2 31 -8 12 -10 18 -10 30 0 26 22 18 40 -18 40
-44 0 -57 15 -57 69 0 60 19 80 76 78 l44 -2 0 -85z m1200 66 c0 -13 6 -26 13
-29 10 -4 10 -7 0 -18 -15 -15 -17 -109 -3 -109 6 0 10 -7 10 -16 0 -10 -7
-14 -22 -12 -21 3 -23 10 -26 63 -2 32 -7 64 -13 71 -6 7 -3 22 7 43 18 37 34
40 34 7z m479 -2 c27 -34 30 -137 5 -172 -21 -31 -64 -26 -82 8 -20 39 -11
158 13 176 27 20 41 17 64 -12z m-1547 -1 c10 -9 18 -27 18 -40 0 -20 -5 -23
-35 -23 -38 0 -57 -22 -36 -43 9 -9 16 -9 31 1 23 14 37 -2 20 -23 -34 -41
-90 2 -90 69 0 69 48 99 92 59z m133 6 c3 -4 -6 -14 -19 -23 -20 -13 -25 -25
-28 -68 -2 -29 -7 -53 -13 -53 -10 0 -20 118 -11 140 4 13 59 15 71 4z m116 1
c16 -9 19 -22 19 -80 l0 -70 -44 0 c-50 0 -71 18 -62 53 4 16 17 27 38 33 19
6 34 17 36 28 4 16 -1 18 -32 12 -39 -7 -49 6 -18 23 22 13 39 13 63 1z m1443
-12 c15 -24 -3 -52 -37 -56 -33 -4 -53 28 -37 59 14 25 58 23 74 -3z m-1110
-20 c38 -54 -2 -148 -57 -134 -50 12 -72 99 -36 143 19 22 76 16 93 -9z m1566
-40 c0 -44 5 -67 17 -81 17 -18 17 -19 0 -32 -9 -6 -17 -20 -17 -29 0 -9 -4
-16 -10 -16 -5 0 -10 9 -10 20 0 20 -32 34 -60 28 -29 -6 -21 42 17 106 49 84
63 85 63 4z m140 48 c6 -8 10 -25 8 -38 -2 -18 -10 -24 -35 -26 -27 -3 -35 1
-44 22 -9 20 -9 29 1 41 16 19 54 19 70 1z m-1482 -9 c6 -6 13 -24 17 -40 7
-26 6 -27 -33 -27 -44 0 -56 -9 -46 -34 7 -18 39 -22 49 -6 9 15 25 12 25 -5
0 -20 -30 -33 -60 -25 -45 11 -65 84 -34 128 17 25 65 30 82 9z m87 3 c5 -8
11 -7 21 1 21 17 63 2 69 -24 10 -38 1 -120 -12 -125 -9 -2 -13 12 -13 50 0
61 -10 81 -36 76 -16 -3 -20 -14 -22 -61 -2 -42 -7 -57 -17 -57 -12 0 -15 16
-15 75 0 69 9 91 25 65z m1579 -6 c9 -8 16 -20 16 -25 0 -12 -27 -12 -35 1 -9
14 -48 13 -63 -2 -17 -17 -15 -100 4 -126 19 -28 38 -28 65 -1 29 29 49 10 25
-25 -25 -38 -76 -36 -110 5 -35 41 -37 131 -4 166 25 27 79 31 102 7z m-1274
-9 c0 -7 -9 -15 -19 -18 -16 -4 -20 -15 -23 -63 -2 -35 -8 -59 -15 -62 -10 -3
-13 17 -13 75 l0 79 35 1 c22 1 35 -4 35 -12z m106 7 c15 -10 34 -47 34 -66 0
-12 -10 -16 -41 -16 -36 0 -40 -2 -37 -22 3 -20 8 -23 40 -21 29 2 36 -1 31
-12 -3 -9 -16 -18 -28 -21 -71 -18 -111 90 -55 146 21 21 38 25 56 12z m553
-75 c8 -26 18 -47 22 -47 3 0 12 20 18 44 6 25 15 47 20 51 21 13 20 -18 -4
-92 -13 -43 -25 -86 -25 -95 0 -20 -38 -34 -53 -19 -8 8 -6 15 9 25 20 15 18
28 -24 170 -3 13 -1 17 9 14 7 -2 20 -26 28 -51z"/>
<path d="M2676 3174 c-3 -9 -6 -54 -6 -101 0 -75 2 -84 18 -81 14 3 17 17 20
101 2 79 0 97 -12 97 -7 0 -17 -7 -20 -16z"/>
<path d="M3287 3173 c-4 -3 -7 -15 -7 -25 0 -13 -7 -18 -25 -18 -35 0 -59 -40
-51 -84 9 -45 26 -58 73 -54 l38 3 3 93 c2 73 0 92 -11 92 -7 0 -17 -3 -20 -7z
m-7 -108 c0 -24 -5 -35 -14 -35 -21 0 -29 17 -22 46 10 38 36 30 36 -11z"/>
<path d="M3347 3166 c-7 -16 1 -26 20 -26 7 0 13 9 13 20 0 23 -25 27 -33 6z"/>
<path d="M3666 3148 c-12 -18 -14 -40 -9 -95 6 -72 16 -89 44 -72 11 7 12 12
2 29 -18 28 -16 60 5 83 12 15 14 21 5 24 -7 3 -13 13 -13 23 0 29 -18 33 -34
8z"/>
<path d="M2737 3123 c-2 -5 -5 -36 -6 -70 -2 -49 1 -63 12 -63 18 0 27 21 27
65 0 19 5 37 11 41 19 11 29 -19 23 -64 -6 -39 -5 -44 12 -40 15 2 20 14 22
47 6 78 -2 91 -53 91 -24 0 -46 -3 -48 -7z"/>
<path d="M2876 3108 c-19 -26 -21 -70 -5 -100 9 -16 8 -23 -2 -29 -11 -6 -11
-13 -3 -26 14 -24 67 -29 87 -9 17 17 31 102 25 151 -3 27 -7 30 -45 33 -33 2
-44 -1 -57 -20z m62 -52 c-2 -11 -11 -22 -20 -24 -14 -3 -18 3 -18 26 0 16 3
32 7 35 11 12 34 -15 31 -37z m-8 -76 c0 -5 -4 -10 -9 -10 -6 0 -13 5 -16 10
-3 6 1 10 9 10 9 0 16 -4 16 -10z"/>
<path d="M3007 3123 c-4 -3 -7 -35 -7 -70 0 -47 3 -63 14 -63 9 0 16 17 21 49
5 37 11 50 26 54 16 4 19 0 19 -37 0 -48 13 -66 50 -66 38 0 49 12 56 61 5 37
3 47 -15 64 -19 16 -26 17 -54 7 -20 -8 -35 -8 -41 -2 -11 11 -59 14 -69 3z
m138 -33 c3 -5 -1 -10 -10 -10 -9 0 -13 5 -10 10 3 6 8 10 10 10 2 0 7 -4 10
-10z m2 -56 c-3 -3 -12 -4 -19 -1 -8 3 -5 6 6 6 11 1 17 -2 13 -5z"/>
<path d="M3347 3123 c-4 -3 -7 -35 -7 -70 0 -47 4 -63 14 -63 17 0 26 31 26
93 0 44 -13 61 -33 40z"/>
<path d="M3418 3113 c-23 -27 -30 -57 -19 -86 19 -49 70 -57 92 -15 9 17 8 19
-18 16 -15 -2 -28 2 -28 7 0 6 12 9 28 7 25 -3 27 0 27 30 0 19 -5 39 -12 46
-17 17 -53 15 -70 -5z m42 -28 c0 -8 -4 -15 -10 -15 -5 0 -10 7 -10 15 0 8 5
15 10 15 6 0 10 -7 10 -15z"/>
<path d="M3526 3099 c-10 -49 -7 -107 5 -115 17 -10 29 16 29 64 0 38 6 47 28
40 4 -2 7 -25 7 -53 0 -38 4 -50 15 -50 11 0 16 15 18 64 3 72 -3 81 -59 81
-33 0 -37 -3 -43 -31z"/>
<path d="M3732 3108 c-17 -17 -15 -89 4 -116 8 -12 23 -22 33 -22 19 0 53 32
50 46 -1 5 1 17 5 26 13 29 -15 73 -49 76 -17 2 -36 -3 -43 -10z m53 -28 c3
-5 -1 -10 -9 -10 -9 0 -16 5 -16 10 0 6 4 10 9 10 6 0 13 -4 16 -10z m5 -60
c-19 -13 -30 -13 -30 0 0 6 10 10 23 10 18 0 19 -2 7 -10z"/>
<path d="M3852 3108 c-22 -22 -14 -58 18 -76 29 -17 39 -32 21 -32 -6 0 -13 5
-16 10 -11 18 -35 11 -35 -10 0 -26 43 -44 71 -30 25 14 37 60 18 71 -8 4 -23
15 -34 23 -19 16 -19 16 8 10 19 -4 27 -2 27 8 0 20 -21 38 -45 38 -12 0 -26
-5 -33 -12z"/>
<path d="M3970 3090 c0 -11 7 -20 15 -20 8 0 15 9 15 20 0 11 -7 20 -15 20 -8
0 -15 -9 -15 -20z"/>
<path d="M3963 2994 c-8 -21 13 -42 28 -27 13 13 5 43 -11 43 -6 0 -13 -7 -17
-16z"/>
<path d="M4092 3053 l3 -98 53 -3 c40 -2 54 1 58 13 9 23 -6 32 -58 34 -16 1
-18 12 -18 76 0 69 -2 75 -20 75 -20 0 -21 -5 -18 -97z"/>
<path d="M4470 3041 c0 -82 3 -101 14 -101 11 0 16 15 18 52 2 41 7 54 21 56
14 3 17 -5 17 -51 0 -38 4 -57 14 -60 22 -9 26 2 26 60 0 66 -13 93 -45 93
-17 0 -25 6 -27 22 -2 13 -11 24 -20 26 -16 3 -18 -7 -18 -97z"/>
<path d="M4247 3089 c-43 -25 -43 -108 -1 -136 22 -14 26 -14 50 2 16 10 23
22 20 32 -4 9 -2 21 4 28 14 17 -3 61 -29 74 -23 13 -21 13 -44 0z m33 -39 c0
-5 -4 -10 -10 -10 -5 0 -10 5 -10 10 0 6 5 10 10 10 6 0 10 -4 10 -10z m5 -50
c3 -5 -1 -10 -9 -10 -9 0 -16 5 -16 10 0 6 4 10 9 10 6 0 13 -4 16 -10z"/>
<path d="M4357 3072 c-21 -23 -22 -81 -1 -110 21 -31 67 -30 84 3 16 29 6 44
-18 29 -26 -16 -42 -6 -42 26 0 30 14 47 25 30 7 -12 45 -14 45 -2 0 16 -36
42 -57 42 -11 0 -27 -8 -36 -18z"/>
<path d="M4637 3082 c-19 -4 -47 -51 -47 -80 0 -29 38 -72 65 -72 29 0 41 15
49 62 10 57 -22 101 -67 90z m28 -42 c3 -5 -1 -10 -9 -10 -9 0 -16 5 -16 10 0
6 4 10 9 10 6 0 13 -4 16 -10z m0 -60 c-3 -5 -10 -10 -16 -10 -5 0 -9 5 -9 10
0 6 7 10 16 10 8 0 12 -4 9 -10z"/>
<path d="M4790 3030 c0 -93 1 -100 20 -100 17 0 20 7 20 40 0 38 2 40 30 40
23 0 30 4 30 20 0 16 -7 20 -31 20 -45 0 -36 33 11 40 22 3 35 10 35 20 0 11
-14 16 -57 18 l-58 3 0 -101z"/>
<path d="M4927 3004 c-7 -71 -4 -84 19 -84 10 0 14 13 14 50 0 39 4 52 20 60
33 17 25 40 -14 40 l-33 0 -6 -66z"/>
<path d="M5026 3054 c-10 -10 -16 -33 -16 -64 0 -40 4 -52 23 -64 12 -9 32
-13 44 -10 23 6 39 36 28 54 -3 5 -1 10 4 10 16 0 13 26 -4 60 -18 34 -53 40
-79 14z m44 -34 c0 -5 -4 -10 -10 -10 -5 0 -10 5 -10 10 0 6 5 10 10 10 6 0
10 -4 10 -10z m15 -50 c-3 -5 -13 -10 -21 -10 -8 0 -14 5 -14 10 0 6 9 10 21
10 11 0 17 -4 14 -10z"/>
<path d="M5146 3054 c-9 -8 -16 -23 -16 -33 0 -20 30 -51 48 -51 7 0 12 -5 12
-10 0 -7 -6 -7 -19 0 -42 22 -58 -2 -23 -33 24 -22 55 -21 75 1 25 27 21 48
-15 77 l-33 26 28 -7 c21 -5 27 -2 27 10 0 16 -29 36 -54 36 -8 0 -22 -7 -30
-16z"/>
<path d="M5271 3041 c-14 -25 -14 -87 -1 -112 14 -25 75 -26 89 -1 10 16 12
16 26 -3 12 -15 28 -20 61 -20 l45 0 -3 70 c-3 66 -4 70 -31 79 -32 12 -60 -1
-65 -29 -3 -14 1 -16 27 -10 42 9 39 -3 -4 -21 -19 -8 -35 -21 -35 -30 0 -13
-3 -14 -14 -5 -11 9 -20 10 -35 1 -18 -9 -23 -7 -33 14 -13 30 7 65 26 46 18
-18 38 -11 34 13 -4 31 -71 38 -87 8z m179 -79 c0 -13 -12 -22 -22 -16 -10 6
-1 24 13 24 5 0 9 -4 9 -8z"/>
<path d="M5517 2943 c-11 -10 -8 -83 3 -83 14 0 30 35 30 64 0 24 -18 35 -33
19z"/>
<path d="M5656 3078 c-23 -36 -28 -72 -16 -117 13 -49 46 -75 85 -65 29 7 60
47 50 64 -9 15 -33 12 -43 -6 -5 -9 -18 -14 -28 -12 -16 3 -19 12 -19 58 0 49
2 55 23 58 13 2 25 -3 28 -12 7 -18 30 -21 39 -6 4 6 -1 22 -9 35 -23 34 -89
36 -110 3z"/>
<path d="M6068 3078 c-7 -19 2 -38 18 -38 8 0 14 10 14 25 0 26 -24 35 -32 13z"/>
<path d="M5700 3002 c0 -42 13 -56 24 -27 3 8 17 15 31 15 14 0 25 5 25 10 0
6 -10 10 -22 10 -12 0 -30 7 -40 17 -17 15 -18 14 -18 -25z"/>
<path d="M5800 2984 c0 -78 11 -94 64 -94 26 0 46 5 48 13 3 6 3 40 0 75 -3
44 -8 62 -18 62 -10 0 -14 -13 -14 -44 0 -41 -19 -74 -33 -59 -4 3 -7 28 -7
55 0 41 -3 48 -20 48 -18 0 -20 -7 -20 -56z"/>
<path d="M5952 3028 c-23 -23 -14 -40 18 -33 19 4 30 3 30 -4 0 -6 -8 -11 -18
-11 -22 0 -52 -30 -52 -52 0 -25 27 -40 73 -41 l42 -1 -4 60 c-1 32 -7 67 -12
77 -11 20 -59 23 -77 5z m48 -88 c0 -5 -7 -10 -16 -10 -8 0 -12 5 -9 10 3 6
10 10 16 10 5 0 9 -4 9 -10z"/>
<path d="M6066 2988 c-3 -24 -7 -59 -10 -78 -2 -19 -7 -45 -11 -58 -7 -21 -5
-23 21 -20 l29 3 3 98 c2 80 0 97 -12 97 -10 0 -17 -14 -20 -42z"/>
<path d="M6135 3000 c-19 -37 -19 -55 2 -91 35 -59 113 -28 113 46 0 46 -25
75 -65 75 -28 0 -37 -6 -50 -30z m73 -39 c4 -28 -17 -45 -35 -29 -14 11 -17
40 -6 52 14 14 38 0 41 -23z"/>
<path d="M6540 3060 c-38 -38 -20 -85 43 -109 15 -6 27 -17 27 -26 0 -19 -34
-20 -50 0 -18 21 -40 19 -40 -5 0 -57 93 -83 124 -34 26 39 7 86 -44 109 -22
10 -40 22 -40 27 0 14 33 9 52 -9 13 -12 22 -13 29 -6 18 18 0 51 -33 62 -41
15 -45 14 -68 -9z"/>
<path d="M6800 2962 c0 -84 3 -101 17 -106 28 -11 34 8 31 105 -3 89 -4 94
-25 97 -23 3 -23 1 -23 -96z"/>
<path d="M6687 3003 c-4 -3 -7 -15 -7 -25 0 -15 5 -17 25 -12 34 8 31 -2 -5
-21 -20 -10 -30 -23 -30 -38 0 -34 19 -47 71 -47 l47 0 -5 63 c-3 34 -10 68
-16 75 -10 13 -69 17 -80 5z m53 -93 c0 -5 -7 -10 -15 -10 -8 0 -15 5 -15 10
0 6 7 10 15 10 8 0 15 -4 15 -10z"/>
<path d="M6325 3021 c-3 -5 4 -40 16 -77 19 -62 20 -69 5 -80 -33 -24 -13 -64
23 -44 19 10 71 147 71 186 0 25 -33 12 -40 -15 -8 -36 -27 -37 -35 -2 -6 29
-30 48 -40 32z"/>
<path d="M2574 2777 c-3 -9 -4 -28 -2 -44 2 -22 8 -28 28 -28 23 0 25 4 25 40
0 34 -3 40 -23 43 -13 2 -24 -3 -28 -11z"/>
<path d="M3037 2776 c-3 -8 2 -16 14 -19 21 -6 34 7 24 23 -9 15 -32 12 -38
-4z"/>
<path d="M3433 2783 c-21 -7 -15 -33 7 -33 11 0 20 6 20 14 0 18 -11 25 -27
19z"/>
<path d="M3717 2774 c-16 -16 -6 -34 19 -34 19 0 25 5 22 17 -3 19 -29 29 -41
17z"/>
<path d="M5004 2696 c-10 -43 3 -78 29 -74 19 3 22 9 22 48 0 39 -3 45 -22 48
-17 3 -24 -3 -29 -22z"/>
<path d="M4026 2745 c-9 -24 -8 -25 20 -25 19 0 25 5 22 17 -4 23 -34 28 -42
8z"/>
<path d="M4447 2734 c-13 -13 -7 -71 8 -84 24 -20 47 6 43 49 -2 27 -8 37 -23
39 -12 2 -24 0 -28 -4z"/>
<path d="M6157 2724 c-13 -14 -8 -131 7 -143 24 -20 37 11 34 81 -2 47 -7 64
-18 66 -9 1 -19 0 -23 -4z"/>
<path d="M4604 2725 c-8 -19 -6 -20 24 -30 21 -6 23 -4 20 16 -4 28 -35 38
-44 14z"/>
<path d="M4853 2654 c-3 -8 -1 -20 5 -26 16 -16 42 -2 42 22 0 24 -38 28 -47
4z"/>
<path d="M6301 2736 c-15 -18 -3 -48 18 -44 21 4 27 44 7 51 -8 3 -19 0 -25
-7z"/>
<path d="M5170 2690 c-14 -27 -6 -66 16 -74 27 -10 45 13 42 53 -2 28 -8 37
-25 39 -14 2 -26 -4 -33 -18z"/>
<path d="M6751 2639 c-14 -42 -15 -41 12 -37 17 2 22 10 22 32 0 41 -20 44
-34 5z"/>
<path d="M6892 2698 c2 -15 10 -23 23 -23 13 0 21 8 23 23 3 18 -1 22 -23 22
-22 0 -26 -4 -23 -22z"/>
<path d="M5410 2691 c0 -23 39 -36 46 -16 8 20 -4 35 -27 35 -12 0 -19 -7 -19
-19z"/>
<path d="M5924 2675 c-8 -19 -5 -22 21 -27 14 -2 20 3 20 17 0 24 -33 33 -41
10z"/>
<path d="M5735 3730 c-3 -6 1 -7 9 -4 18 7 21 14 7 14 -6 0 -13 -4 -16 -10z"/>
<path d="M7048 3719 c-44 -4 -89 -14 -103 -23 -13 -9 -35 -16 -47 -17 -22 -1
-22 -1 2 -9 l25 -8 -22 -7 c-13 -4 -23 -12 -23 -17 0 -5 9 -7 20 -3 11 3 32 9
47 11 50 9 128 37 142 51 7 8 20 12 27 9 14 -5 30 10 17 16 -5 2 -43 1 -85 -3z"/>
<path d="M5600 3690 c-96 -36 -143 -50 -168 -50 -12 0 -22 -4 -22 -9 0 -5 20
-8 45 -7 25 0 45 4 45 7 0 10 100 49 124 49 12 0 31 7 42 15 19 14 19 14 -1
13 -11 0 -40 -8 -65 -18z"/>
<path d="M4128 3673 c7 -3 16 -2 19 1 4 3 -2 6 -13 5 -11 0 -14 -3 -6 -6z"/>
<path d="M4738 3563 c6 -2 18 -2 25 0 6 3 1 5 -13 5 -14 0 -19 -2 -12 -5z"/>
<path d="M3808 3513 c7 -3 16 -2 19 1 4 3 -2 6 -13 5 -11 0 -14 -3 -6 -6z"/>
<path d="M1071 3001 c-1 -8 -8 -11 -19 -9 -10 3 -23 -1 -30 -9 -7 -7 -23 -13
-36 -13 -13 0 -26 -7 -30 -15 -3 -8 -15 -15 -26 -15 -33 0 -15 -16 35 -31 43
-13 66 -33 25 -22 -14 4 -21 -1 -26 -21 -4 -19 -13 -26 -29 -26 -13 0 -27 -4
-30 -10 -3 -5 -1 -10 4 -10 6 0 11 -7 11 -15 0 -17 5 -17 73 -6 39 7 47 5 47
-8 1 -12 5 -10 20 8 11 13 20 18 20 12 0 -6 5 -11 10 -11 14 0 13 37 -2 42 -8
3 -9 15 -2 44 7 27 7 52 -2 84 -7 25 -12 39 -13 31z"/>
<path d="M1091 2764 c0 -11 3 -14 6 -6 3 7 2 16 -1 19 -3 4 -6 -2 -5 -13z"/>
<path d="M8890 2131 c0 -18 4 -30 10 -26 5 3 19 1 30 -5 29 -16 24 2 -10 35
l-30 29 0 -33z"/>
<path d="M8901 2054 c0 -11 3 -14 6 -6 3 7 2 16 -1 19 -3 4 -6 -2 -5 -13z"/>
<path d="M3073 2074 c-3 -8 -1 -20 6 -27 8 -8 11 -4 11 16 0 30 -7 35 -17 11z"/>
<path d="M755 12790 c28 -12 63 -12 70 0 4 6 -12 10 -42 9 -36 0 -43 -3 -28
-9z"/>
<path d="M1110 12782 c0 -10 -7 -27 -15 -38 -22 -30 -19 -64 6 -64 17 0 20 5
17 25 -4 16 -1 25 8 25 7 0 20 10 28 22 15 21 16 19 14 -32 0 -30 3 -76 7
-101 5 -31 4 -49 -4 -53 -6 -4 -11 -15 -11 -25 0 -20 33 -55 43 -45 12 12 36
-23 30 -44 -4 -17 1 -23 21 -28 31 -7 32 -12 9 -30 -14 -10 -16 -17 -7 -31 9
-14 24 -18 68 -19 37 0 60 -5 66 -14 6 -10 15 -7 38 17 21 21 28 34 21 44 -22
35 -11 46 49 52 31 3 67 8 79 12 18 6 26 1 42 -26 l21 -34 0 41 c0 44 -15 59
-47 47 -16 -6 -16 -5 -4 10 12 15 12 19 -5 32 -10 8 -34 15 -51 15 -18 0 -33
5 -33 10 0 6 -8 10 -18 10 -10 0 -24 9 -32 20 -8 12 -31 23 -52 27 -31 4 -37
9 -36 28 1 12 -9 36 -22 53 -20 24 -33 31 -62 31 -30 1 -36 4 -31 17 3 8 0 26
-7 40 -12 21 -20 24 -72 24 -49 0 -58 -3 -58 -18z m234 -157 c6 -18 -16 -30
-39 -21 -20 7 -8 36 15 36 10 0 21 -7 24 -15z m-62 -35 c3 -16 1 -35 -4 -42
-4 -8 -8 4 -8 30 0 49 6 55 12 12z m108 -70 c0 -5 -4 -10 -9 -10 -6 0 -13 5
-16 10 -3 6 1 10 9 10 9 0 16 -4 16 -10z m75 -30 c3 -5 -1 -10 -9 -10 -9 0
-16 5 -16 10 0 6 4 10 9 10 6 0 13 -4 16 -10z m-85 -14 c0 -3 -4 -8 -10 -11
-5 -3 -10 -1 -10 4 0 6 5 11 10 11 6 0 10 -2 10 -4z m-73 -29 c-6 -20 -27 -19
-27 2 0 14 5 19 15 14 9 -3 14 -10 12 -16z"/>
<path d="M5450 12781 c0 -32 13 -61 26 -61 8 0 14 3 14 8 0 14 61 34 85 28 18
-5 24 -14 27 -39 l3 -32 15 30 c8 17 25 34 38 40 12 5 22 18 22 28 0 16 -10
18 -115 16 -98 -2 -115 -4 -115 -18z"/>
<path d="M5420 12390 c0 -5 6 -10 14 -10 8 0 18 5 21 10 3 6 -3 10 -14 10 -12
0 -21 -4 -21 -10z"/>
<path d="M1397 12284 c-17 -61 -17 -74 -3 -74 15 0 36 29 36 47 0 5 -6 18 -14
28 -13 18 -14 18 -19 -1z"/>
<path d="M4912 12138 c-7 -7 -12 -17 -12 -24 0 -7 -6 -14 -12 -17 -7 -2 -9 -8
-5 -13 4 -5 11 -4 15 2 4 6 15 13 25 17 18 7 23 32 9 41 -5 3 -14 0 -20 -6z"/>
<path d="M1838 11743 c5 -24 18 -29 41 -14 20 13 8 36 -21 36 -20 1 -24 -3
-20 -22z"/>
<path d="M3367 11753 c-15 -14 -7 -43 12 -43 24 0 33 13 25 34 -6 16 -25 21
-37 9z"/>
<path d="M3720 11666 c0 -21 17 -29 46 -22 38 10 30 36 -11 36 -24 0 -35 -5
-35 -14z"/>
<path d="M3853 11663 c-18 -7 -16 -23 2 -23 8 0 15 7 15 15 0 8 -1 15 -2 14
-2 0 -9 -3 -15 -6z"/>
<path d="M4217 11616 c-13 -19 -16 -31 -9 -38 12 -12 35 25 30 50 -2 12 -7 10
-21 -12z"/>
<path d="M3295 11461 c-7 -12 12 -24 25 -16 11 7 4 25 -10 25 -5 0 -11 -4 -15
-9z"/>
<path d="M3195 11450 c-3 -5 1 -10 10 -10 9 0 13 5 10 10 -3 6 -8 10 -10 10
-2 0 -7 -4 -10 -10z"/>
<path d="M3255 11450 c-3 -5 1 -10 9 -10 9 0 16 5 16 10 0 6 -4 10 -9 10 -6 0
-13 -4 -16 -10z"/>
</g>
</svg>
